<svg width="76" height="36" viewBox="0 0 76 36" fill="none" xmlns="http://www.w3.org/2000/svg">
<g filter="url(#filter0_d_281_2942)">
<rect x="2" y="1" width="32" height="32" rx="16" fill="white"/>
<rect x="2.5" y="1.5" width="31" height="31" rx="15.5" stroke="#E5E7EB"/>
<path d="M22.3749 16.1663C22.3749 19.0428 20.0431 21.3747 17.1666 21.3747C14.2901 21.3747 11.9583 19.0428 11.9583 16.1663C11.9583 13.2899 14.2901 10.958 17.1666 10.958C20.0431 10.958 22.3749 13.2899 22.3749 16.1663Z" stroke="#374151" stroke-width="1.5" stroke-linecap="round" stroke-linejoin="round"/>
<path d="M20.9167 19.917L24.0417 23.042" stroke="#374151" stroke-width="1.5" stroke-linecap="round" stroke-linejoin="round"/>
<path d="M19.0417 16.167L15.2917 16.167" stroke="#374151" stroke-width="1.5" stroke-linecap="round" stroke-linejoin="round"/>
</g>
<g filter="url(#filter1_d_281_2942)">
<rect x="42" y="1" width="32" height="32" rx="16" fill="white"/>
<rect x="42.5" y="1.5" width="31" height="31" rx="15.5" stroke="#E5E7EB"/>
<path d="M62.3749 16.1663C62.3749 19.0428 60.0431 21.3747 57.1666 21.3747C54.2901 21.3747 51.9583 19.0428 51.9583 16.1663C51.9583 13.2899 54.2901 10.958 57.1666 10.958C60.0431 10.958 62.3749 13.2899 62.3749 16.1663Z" stroke="#374151" stroke-width="1.5" stroke-linecap="round" stroke-linejoin="round"/>
<path d="M60.9167 19.917L64.0417 23.042" stroke="#374151" stroke-width="1.5" stroke-linecap="round" stroke-linejoin="round"/>
<path d="M57.1667 14.292V18.042" stroke="#374151" stroke-width="1.5" stroke-linecap="round" stroke-linejoin="round"/>
<path d="M59.0417 16.167L55.2917 16.167" stroke="#374151" stroke-width="1.5" stroke-linecap="round" stroke-linejoin="round"/>
</g>
<defs>
<filter id="filter0_d_281_2942" x="0" y="0" width="36" height="36" filterUnits="userSpaceOnUse" color-interpolation-filters="sRGB">
<feFlood flood-opacity="0" result="BackgroundImageFix"/>
<feColorMatrix in="SourceAlpha" type="matrix" values="0 0 0 0 0 0 0 0 0 0 0 0 0 0 0 0 0 0 127 0" result="hardAlpha"/>
<feOffset dy="1"/>
<feGaussianBlur stdDeviation="1"/>
<feColorMatrix type="matrix" values="0 0 0 0 0.121569 0 0 0 0 0.160784 0 0 0 0 0.215686 0 0 0 0.08 0"/>
<feBlend mode="normal" in2="BackgroundImageFix" result="effect1_dropShadow_281_2942"/>
<feBlend mode="normal" in="SourceGraphic" in2="effect1_dropShadow_281_2942" result="shape"/>
</filter>
<filter id="filter1_d_281_2942" x="40" y="0" width="36" height="36" filterUnits="userSpaceOnUse" color-interpolation-filters="sRGB">
<feFlood flood-opacity="0" result="BackgroundImageFix"/>
<feColorMatrix in="SourceAlpha" type="matrix" values="0 0 0 0 0 0 0 0 0 0 0 0 0 0 0 0 0 0 127 0" result="hardAlpha"/>
<feOffset dy="1"/>
<feGaussianBlur stdDeviation="1"/>
<feColorMatrix type="matrix" values="0 0 0 0 0.121569 0 0 0 0 0.160784 0 0 0 0 0.215686 0 0 0 0.08 0"/>
<feBlend mode="normal" in2="BackgroundImageFix" result="effect1_dropShadow_281_2942"/>
<feBlend mode="normal" in="SourceGraphic" in2="effect1_dropShadow_281_2942" result="shape"/>
</filter>
</defs>
</svg>
