<svg width="45" height="39" viewBox="0 0 45 39" fill="none" xmlns="http://www.w3.org/2000/svg">
<path d="M25.4377 38.478C26.6235 38.1266 27.5495 37.6731 28.3045 37.1753C28.3045 37.1753 28.2906 37.1908 28.2837 37.1986C28.3913 37.1254 28.4688 37.0546 28.5765 36.9814C28.72 36.8839 28.8705 36.7786 28.9978 36.668C29.1111 36.5728 29.2082 36.4645 29.3215 36.3693C29.5596 36.1348 29.7814 35.8873 29.966 35.6498C30.0353 35.5724 30.1046 35.495 30.1506 35.4123C30.2452 35.2754 30.3095 35.1408 30.389 35.0051C30.4419 34.9146 30.5018 34.8164 30.5397 34.727C30.604 34.5925 30.6533 34.4591 30.7094 34.318C30.7391 34.2221 30.7839 34.125 30.8136 34.0291C30.8547 33.8892 30.897 33.7635 30.9229 33.6248C30.9526 33.5289 30.9672 33.4342 30.9818 33.3395C31.0008 33.2085 31.035 33.0762 31.0389 32.9464C31.0466 32.8594 31.0542 32.7724 31.0619 32.6855C31.0658 32.5556 31.0848 32.4246 31.0819 32.3025C31.0826 32.2232 31.0776 32.166 31.0783 32.0868C31.0711 31.8282 31.0582 31.5917 31.0302 31.3564C31.0252 31.2992 31.0121 31.2354 31.0071 31.1782C30.9903 31.0716 30.9746 30.9792 30.9509 30.8803C30.9377 30.8166 30.9234 30.7385 30.9102 30.6748C30.8877 30.5901 30.8733 30.5121 30.8508 30.4275C30.8376 30.3637 30.8163 30.2934 30.7963 30.2374C30.775 30.1671 30.7549 30.111 30.7418 30.0473C30.7217 29.9913 30.7098 29.9418 30.6897 29.8858C30.6778 29.8363 30.659 29.7946 30.6484 29.7594C30.6365 29.71 30.6189 29.6826 30.6001 29.6408C30.5907 29.62 30.5813 29.5991 30.5718 29.5783C30.553 29.5365 30.5436 29.5157 30.5436 29.5157C37.101 30.7114 37.5789 28.8604 39.2078 25.2069C39.341 24.9014 39.481 24.5882 39.6431 24.2661C40.5035 22.443 41.2601 21.614 41.9624 21.034C42.3591 20.7008 42.7401 20.448 43.1173 20.1524C43.1519 20.1137 43.2099 20.0804 43.2527 20.0483C43.3012 19.9941 43.3591 19.9608 43.4076 19.9067C43.4561 19.8525 43.5128 19.8049 43.5764 19.7496C43.618 19.7032 43.6665 19.649 43.7081 19.6026C43.7705 19.533 43.8328 19.4633 43.8952 19.3937C43.9368 19.3473 43.9853 19.2931 44.0269 19.2467C44.1031 19.1616 44.163 19.0634 44.238 18.964C44.2796 18.9175 44.313 18.8646 44.3464 18.8116C44.3533 18.8038 44.3672 18.7884 44.3741 18.7806C44.4674 18.6294 44.5677 18.4705 44.6654 18.2829C45.6422 16.4867 42.0167 15.2645 37.1931 15.7405C36.7111 15.7924 36.2222 15.852 35.7125 15.9348C34.7081 16.0993 33.6647 16.3388 32.6206 16.6576C32.095 16.8208 31.5707 16.9983 31.0489 17.2045C30.7915 17.3037 30.5271 17.4106 30.2709 17.5241C29.4941 17.8581 28.7142 18.2426 27.9624 18.6898L27.9485 18.7052C27.601 18.905 27.2824 19.0881 26.9639 19.2713C26.8839 19.3135 26.8121 19.3623 26.7322 19.4045C26.4275 19.5721 26.1378 19.7386 25.8552 19.8973C25.8042 19.9229 25.7614 19.955 25.7173 19.9728C25.4705 20.1072 25.2306 20.2338 25.0059 20.3593C24.9549 20.3848 24.897 20.4181 24.846 20.4437C24.5992 20.578 24.3663 20.6969 24.1403 20.8081C24.0893 20.8336 24.0383 20.8592 23.9873 20.8848C23.7902 20.9793 23.5932 21.0738 23.4182 21.1594C23.3892 21.176 23.3672 21.1849 23.3382 21.2016C23.1412 21.2961 22.958 21.3751 22.7899 21.4529C22.7459 21.4708 22.7018 21.4886 22.6578 21.5064C22.4897 21.5843 22.3285 21.6544 22.1812 21.709C22.1674 21.7245 22.1523 21.7257 22.1372 21.7268C22.005 21.7803 21.8728 21.8338 21.7545 21.8718C21.7255 21.8884 21.6884 21.8985 21.6664 21.9074C21.5411 21.9532 21.4228 21.9912 21.3196 22.028C21.2975 22.0369 21.2755 22.0458 21.2453 22.0481C21.149 22.0772 21.0678 22.1051 20.9854 22.1187C20.9784 22.1265 20.9482 22.1288 20.9331 22.13C20.8438 22.1513 20.7695 22.1715 20.6871 22.1851C20.672 22.1863 20.6499 22.1952 20.6348 22.1964C20.5675 22.2088 20.5002 22.2213 20.4398 22.226C20.3794 22.2307 20.319 22.2354 20.2737 22.2389C20.2737 22.2389 20.2586 22.2401 20.2435 22.2412C20.1982 22.2448 20.1598 22.2405 20.1214 22.2363C20.083 22.2321 20.0598 22.2267 20.0283 22.2148C20.012 22.2017 19.9736 22.1975 19.9573 22.1843C19.8931 22.1461 19.8812 22.0967 19.8731 22.0901C20.4301 21.9388 20.915 21.57 21.1572 21.0329C21.3616 20.5852 21.3578 20.1032 21.1985 19.6694C22.8499 19.253 25.5457 18.3451 27.2302 16.5587C27.3411 16.4349 27.3331 16.2556 27.2024 16.1506C27.0717 16.0456 26.8823 16.0531 26.7714 16.1769C25.1562 17.886 22.4579 18.7653 20.8947 19.146C20.6981 18.895 20.4366 18.685 20.1058 18.5524C19.704 18.3893 19.2762 18.365 18.8804 18.4462C18.1075 17.1604 16.8046 14.5842 17.0158 12.1998C17.0323 12.0401 16.9061 11.8988 16.7375 11.8831C16.5689 11.8675 16.4196 11.987 16.4031 12.1467C16.181 14.6687 17.4725 17.2889 18.2982 18.657C17.9425 18.8502 17.6489 19.1466 17.4698 19.5348C17.2275 20.0719 17.2784 20.6581 17.5414 21.1487C17.5275 21.1641 17.4986 21.1808 17.4765 21.1897C17.4765 21.1897 17.4765 21.1897 17.4684 21.1831C17.4438 21.1635 17.4124 21.1515 17.3797 21.1253C17.3715 21.1187 17.3634 21.1121 17.347 21.099C17.3225 21.0793 17.2898 21.0531 17.249 21.0203C17.2326 21.0071 17.2163 20.994 17.1987 20.9666C17.166 20.9403 17.139 20.8921 17.0969 20.845C17.0724 20.8253 17.063 20.8044 17.0454 20.777C17.0021 20.7156 16.9657 20.6464 16.9211 20.5707C16.9048 20.5576 16.8954 20.5367 16.886 20.5159C16.8238 20.4128 16.7686 20.3019 16.6958 20.1636C16.6782 20.1362 16.6675 20.101 16.6569 20.0659C16.6016 19.955 16.5534 19.8364 16.4969 19.7112C16.4768 19.6552 16.4568 19.5992 16.4285 19.5366C16.3721 19.4114 16.3213 19.2642 16.2705 19.117C16.2423 19.0545 16.2291 18.9907 16.2009 18.9281C16.1301 18.7249 16.051 18.5151 15.9777 18.2833C15.9683 18.2625 15.9658 18.2339 15.9482 18.2064C15.8643 17.9395 15.7709 17.6516 15.675 17.3352C15.6525 17.2506 15.6299 17.166 15.6074 17.0813C15.541 16.8418 15.4652 16.5814 15.3963 16.3132C15.3631 16.1934 15.3299 16.0737 15.3037 15.9461C15.2348 15.678 15.1634 15.3812 15.0921 15.0845C15.0658 14.957 15.0326 14.8372 14.9982 14.7031C14.8911 14.258 14.7829 13.7986 14.6709 13.2963C14.1228 10.8341 13.0843 8.59012 11.8561 6.69913C11.4517 6.06841 11.0126 5.47637 10.5704 4.93497C10.2896 4.58973 10.0113 4.2731 9.72601 3.9642C9.55763 3.77576 9.39049 3.60163 9.21643 3.43523C6.64576 0.878529 4.06997 -0.072716 3.47342 1.54996C3.40018 1.75719 3.3408 1.94895 3.28836 2.13297C3.27129 2.19907 3.26115 2.25745 3.24284 2.30925C3.21439 2.41943 3.18719 2.5439 3.16567 2.64634C3.1486 2.71245 3.14664 2.77738 3.12957 2.84348C3.11498 2.93819 3.10732 3.02516 3.09966 3.11212C3.0977 3.17705 3.0888 3.24972 3.08683 3.31466C3.0861 3.39388 3.08413 3.45882 3.08341 3.53805C3.08144 3.60298 3.08764 3.67447 3.08567 3.7394C3.09064 3.7966 3.08743 3.84723 3.09239 3.90442C3.12516 4.36971 3.18565 4.80406 3.21397 5.30569C3.25252 6.188 3.13415 7.27684 2.32846 9.11732C2.18271 9.45255 2.04265 9.76575 1.90136 10.0646C0.225847 13.7074 -0.86706 15.3039 4.56859 18.9909C4.56859 18.9909 4.55473 19.0064 4.5176 19.0164C4.48046 19.0265 4.42947 19.0521 4.36337 19.0788C4.36337 19.0788 4.36338 19.0788 4.35645 19.0866C3.73389 19.3581 1.95485 20.2307 0.920891 21.9809C0.0849121 23.3847 -0.252867 25.3615 0.928516 28.0263C1.0308 28.2415 1.12616 28.4644 1.24478 28.6927C1.36341 28.921 1.48772 29.1272 1.61897 29.3258C1.61897 29.3258 1.61897 29.3258 1.62714 29.3323C1.75021 29.5243 1.88715 29.7008 2.03794 29.8618C5.93441 34.2947 14.2184 27.6187 15.5926 26.4609L13.1182 32.5482C12.999 32.8382 13.1496 33.172 13.4489 33.2927C13.7564 33.4199 14.1101 33.2916 14.2527 33.007L17.2719 26.8917C17.2719 26.8917 17.3557 40.0352 24.6604 38.7184C24.6604 38.7184 24.6755 38.7172 24.6906 38.716C24.9298 38.6687 25.1758 38.6135 25.4358 38.5429L25.4377 38.478Z" fill="#55B76B"/>
</svg>
