<svg width="76" height="75" viewBox="0 0 76 75" fill="none" xmlns="http://www.w3.org/2000/svg">
<path d="M46.9824 57.5509L37.6074 71.6134C37.4366 71.8697 37.217 72.0897 36.9611 72.2611C36.7052 72.4324 36.4181 72.5517 36.1161 72.6121C35.5063 72.7341 34.8729 72.6088 34.3555 72.2638C33.838 71.9188 33.4787 71.3824 33.3568 70.7725C33.2348 70.1627 33.3601 69.5294 33.7051 69.0119L43.0801 54.9494C43.4251 54.4319 43.9615 54.0726 44.5713 53.9507C45.1812 53.8287 45.8145 53.954 46.332 54.299C46.8495 54.644 47.2087 55.1804 47.3307 55.7903C47.4527 56.4001 47.3274 57.0334 46.9824 57.5509ZM68.4306 25.6496C68.098 19.9606 65.5967 14.6156 61.4418 10.7154C57.2868 6.81511 51.7946 4.65644 46.0959 4.68385C40.3972 4.71126 34.926 6.92266 30.8088 10.8627C26.6915 14.8027 24.2418 20.1715 23.9639 25.8634C23.9297 26.4708 23.6657 27.0425 23.2256 27.4625C22.7855 27.8825 22.2021 28.1194 21.5937 28.1252H21.418C20.7992 28.0699 20.2265 27.7753 19.8216 27.3043C19.4168 26.8332 19.2117 26.2227 19.25 25.6027C19.3314 23.9731 19.5599 22.3542 19.9326 20.7658C19.9807 20.5663 19.9756 20.3577 19.9178 20.1609C19.8599 19.964 19.7515 19.7858 19.6032 19.644C19.4549 19.5023 19.2719 19.4019 19.0727 19.353C18.8734 19.3041 18.6648 19.3084 18.4678 19.3654C15.2952 20.3027 12.5131 22.2456 10.5406 24.9013C8.56802 27.5571 7.51189 30.7819 7.53124 34.09C7.58983 42.5011 14.5976 49.2189 23.0117 49.2189H33.6201L26.6738 59.6369C26.3288 60.1544 26.2035 60.7877 26.3255 61.3975C26.4475 62.0074 26.8067 62.5438 27.3242 62.8888C27.8417 63.2338 28.475 63.3591 29.0849 63.2371C29.6947 63.1152 30.2312 62.7559 30.5762 62.2384L39.2539 49.2189H46.2031C49.2359 49.2155 52.2361 48.5933 55.02 47.3902C57.804 46.1872 60.3132 44.4286 62.3939 42.2223C64.4747 40.0159 66.0833 37.4081 67.1213 34.5584C68.1593 31.7088 68.6049 28.6773 68.4306 25.6496Z" fill="#55B76B"/>
</svg>
