<svg width="35" height="35" viewBox="0 0 35 35" fill="none" xmlns="http://www.w3.org/2000/svg">
<path d="M23.7891 6.52801C22.1003 4.57763 20.1996 2.82137 18.1221 1.29169C17.9382 1.16286 17.7191 1.09375 17.4945 1.09375C17.27 1.09375 17.0509 1.16286 16.867 1.29169C14.7933 2.822 12.8963 4.57825 11.2109 6.52801C7.45254 10.8442 5.46875 15.3942 5.46875 19.6872C5.46875 22.8781 6.73632 25.9383 8.99262 28.1946C11.2489 30.4509 14.3091 31.7184 17.5 31.7184C20.6909 31.7184 23.7511 30.4509 26.0074 28.1946C28.2637 25.9383 29.5312 22.8781 29.5312 19.6872C29.5312 15.3942 27.5475 10.8442 23.7891 6.52801ZM25.1357 20.9641C24.8521 22.5483 24.09 24.0076 22.9519 25.1454C21.8138 26.2833 20.3543 27.0451 18.7701 27.3284C18.7118 27.3378 18.6528 27.3428 18.5938 27.3434C18.3194 27.3434 18.0551 27.2402 17.8532 27.0544C17.6514 26.8685 17.5268 26.6137 17.504 26.3402C17.4813 26.0668 17.5622 25.7949 17.7306 25.5783C17.899 25.3617 18.1427 25.2163 18.4133 25.171C20.6787 24.7895 22.601 22.8673 22.9852 20.5977C23.0337 20.3116 23.194 20.0566 23.4306 19.8886C23.6673 19.7207 23.961 19.6536 24.2471 19.7022C24.5332 19.7508 24.7882 19.9111 24.9562 20.1477C25.1241 20.3844 25.1912 20.6781 25.1426 20.9641H25.1357Z" fill="white" fill-opacity="0.9"/>
</svg>
