<svg width="379" height="202" viewBox="0 0 379 202" fill="none" xmlns="http://www.w3.org/2000/svg">
<g filter="url(#filter0_d_248_624)">
<mask id="path-1-inside-1_248_624" fill="white">
<path fill-rule="evenodd" clip-rule="evenodd" d="M13 13C13 7.47715 17.4772 3 23 3H355.197C360.72 3 365.197 7.47715 365.197 13V131.875H358.137C353.622 131.875 349.962 135.535 349.962 140.05C349.962 144.565 353.622 148.225 358.137 148.225H365.197V169C365.197 174.523 360.72 179 355.197 179H23C17.4772 179 13 174.523 13 169V148.225H17.3716C21.8864 148.225 25.5464 144.565 25.5464 140.05C25.5464 135.535 21.8864 131.875 17.3716 131.875H13V13Z"/>
</mask>
<path fill-rule="evenodd" clip-rule="evenodd" d="M13 13C13 7.47715 17.4772 3 23 3H355.197C360.72 3 365.197 7.47715 365.197 13V131.875H358.137C353.622 131.875 349.962 135.535 349.962 140.05C349.962 144.565 353.622 148.225 358.137 148.225H365.197V169C365.197 174.523 360.72 179 355.197 179H23C17.4772 179 13 174.523 13 169V148.225H17.3716C21.8864 148.225 25.5464 144.565 25.5464 140.05C25.5464 135.535 21.8864 131.875 17.3716 131.875H13V13Z" fill="white"/>
<path d="M365.197 131.875V132.875H366.197V131.875H365.197ZM365.197 148.225H366.197V147.225H365.197V148.225ZM13 148.225V147.225H12V148.225H13ZM13 131.875H12V132.875H13V131.875ZM23 2C16.9249 2 12 6.92487 12 13H14C14 8.02944 18.0294 4 23 4V2ZM355.197 2H23V4H355.197V2ZM366.197 13C366.197 6.92486 361.272 2 355.197 2V4C360.167 4 364.197 8.02944 364.197 13H366.197ZM366.197 131.875V13H364.197V131.875H366.197ZM358.137 132.875H365.197V130.875H358.137V132.875ZM350.962 140.05C350.962 136.087 354.174 132.875 358.137 132.875V130.875C353.069 130.875 348.962 134.983 348.962 140.05H350.962ZM358.137 147.225C354.174 147.225 350.962 144.012 350.962 140.05H348.962C348.962 145.117 353.069 149.225 358.137 149.225V147.225ZM365.197 147.225H358.137V149.225H365.197V147.225ZM366.197 169V148.225H364.197V169H366.197ZM355.197 180C361.272 180 366.197 175.075 366.197 169H364.197C364.197 173.971 360.167 178 355.197 178V180ZM23 180H355.197V178H23V180ZM12 169C12 175.075 16.9249 180 23 180V178C18.0295 178 14 173.971 14 169H12ZM12 148.225V169H14V148.225H12ZM17.3716 147.225H13V149.225H17.3716V147.225ZM24.5464 140.05C24.5464 144.012 21.3341 147.225 17.3716 147.225V149.225C22.4387 149.225 26.5464 145.117 26.5464 140.05H24.5464ZM17.3716 132.875C21.3342 132.875 24.5464 136.087 24.5464 140.05H26.5464C26.5464 134.983 22.4387 130.875 17.3716 130.875V132.875ZM13 132.875H17.3716V130.875H13V132.875ZM12 13V131.875H14V13H12Z" fill="#6C757D" fill-opacity="0.2" mask="url(#path-1-inside-1_248_624)"/>
</g>
<path d="M28.235 140.505H346.382" stroke="#6C757D" stroke-opacity="0.2" stroke-linejoin="round"/>
<defs>
<filter id="filter0_d_248_624" x="0" y="0" width="378.197" height="202" filterUnits="userSpaceOnUse" color-interpolation-filters="sRGB">
<feFlood flood-opacity="0" result="BackgroundImageFix"/>
<feColorMatrix in="SourceAlpha" type="matrix" values="0 0 0 0 0 0 0 0 0 0 0 0 0 0 0 0 0 0 127 0" result="hardAlpha"/>
<feOffset dy="10"/>
<feGaussianBlur stdDeviation="6.5"/>
<feComposite in2="hardAlpha" operator="out"/>
<feColorMatrix type="matrix" values="0 0 0 0 0 0 0 0 0 0 0 0 0 0 0 0 0 0 0.13 0"/>
<feBlend mode="normal" in2="BackgroundImageFix" result="effect1_dropShadow_248_624"/>
<feBlend mode="normal" in="SourceGraphic" in2="effect1_dropShadow_248_624" result="shape"/>
</filter>
</defs>
</svg>
