<svg width="30" height="30" viewBox="0 0 30 30" fill="none" xmlns="http://www.w3.org/2000/svg">
<rect width="30" height="30" rx="15" fill="#55B76B"/>
<path d="M23.75 21.25H23.125V11.875C23.125 11.7092 23.0592 11.5503 22.9419 11.4331C22.8247 11.3158 22.6658 11.25 22.5 11.25H17.5C17.3342 11.25 17.1753 11.3158 17.0581 11.4331C16.9408 11.5503 16.875 11.7092 16.875 11.875V15H13.125V8.125C13.125 7.95924 13.0592 7.80027 12.9419 7.68306C12.8247 7.56585 12.6658 7.5 12.5 7.5H7.5C7.33424 7.5 7.17527 7.56585 7.05806 7.68306C6.94085 7.80027 6.875 7.95924 6.875 8.125V21.25H6.25C6.08424 21.25 5.92527 21.3158 5.80806 21.4331C5.69085 21.5503 5.625 21.7092 5.625 21.875C5.625 22.0408 5.69085 22.1997 5.80806 22.3169C5.92527 22.4342 6.08424 22.5 6.25 22.5H23.75C23.9158 22.5 24.0747 22.4342 24.1919 22.3169C24.3092 22.1997 24.375 22.0408 24.375 21.875C24.375 21.7092 24.3092 21.5503 24.1919 21.4331C24.0747 21.3158 23.9158 21.25 23.75 21.25ZM18.125 12.5H21.875V21.25H18.125V12.5ZM16.875 16.25V21.25H13.125V16.25H16.875ZM8.125 8.75H11.875V21.25H8.125V8.75ZM10.625 10.625V11.875C10.625 12.0408 10.5592 12.1997 10.4419 12.3169C10.3247 12.4342 10.1658 12.5 10 12.5C9.83424 12.5 9.67527 12.4342 9.55806 12.3169C9.44085 12.1997 9.375 12.0408 9.375 11.875V10.625C9.375 10.4592 9.44085 10.3003 9.55806 10.1831C9.67527 10.0658 9.83424 10 10 10C10.1658 10 10.3247 10.0658 10.4419 10.1831C10.5592 10.3003 10.625 10.4592 10.625 10.625ZM10.625 14.375V15.625C10.625 15.7908 10.5592 15.9497 10.4419 16.0669C10.3247 16.1842 10.1658 16.25 10 16.25C9.83424 16.25 9.67527 16.1842 9.55806 16.0669C9.44085 15.9497 9.375 15.7908 9.375 15.625V14.375C9.375 14.2092 9.44085 14.0503 9.55806 13.9331C9.67527 13.8158 9.83424 13.75 10 13.75C10.1658 13.75 10.3247 13.8158 10.4419 13.9331C10.5592 14.0503 10.625 14.2092 10.625 14.375ZM10.625 18.125V19.375C10.625 19.5408 10.5592 19.6997 10.4419 19.8169C10.3247 19.9342 10.1658 20 10 20C9.83424 20 9.67527 19.9342 9.55806 19.8169C9.44085 19.6997 9.375 19.5408 9.375 19.375V18.125C9.375 17.9592 9.44085 17.8003 9.55806 17.6831C9.67527 17.5658 9.83424 17.5 10 17.5C10.1658 17.5 10.3247 17.5658 10.4419 17.6831C10.5592 17.8003 10.625 17.9592 10.625 18.125ZM14.375 19.375V18.125C14.375 17.9592 14.4408 17.8003 14.5581 17.6831C14.6753 17.5658 14.8342 17.5 15 17.5C15.1658 17.5 15.3247 17.5658 15.4419 17.6831C15.5592 17.8003 15.625 17.9592 15.625 18.125V19.375C15.625 19.5408 15.5592 19.6997 15.4419 19.8169C15.3247 19.9342 15.1658 20 15 20C14.8342 20 14.6753 19.9342 14.5581 19.8169C14.4408 19.6997 14.375 19.5408 14.375 19.375ZM19.375 19.375V18.125C19.375 17.9592 19.4408 17.8003 19.5581 17.6831C19.6753 17.5658 19.8342 17.5 20 17.5C20.1658 17.5 20.3247 17.5658 20.4419 17.6831C20.5592 17.8003 20.625 17.9592 20.625 18.125V19.375C20.625 19.5408 20.5592 19.6997 20.4419 19.8169C20.3247 19.9342 20.1658 20 20 20C19.8342 20 19.6753 19.9342 19.5581 19.8169C19.4408 19.6997 19.375 19.5408 19.375 19.375ZM19.375 15.625V14.375C19.375 14.2092 19.4408 14.0503 19.5581 13.9331C19.6753 13.8158 19.8342 13.75 20 13.75C20.1658 13.75 20.3247 13.8158 20.4419 13.9331C20.5592 14.0503 20.625 14.2092 20.625 14.375V15.625C20.625 15.7908 20.5592 15.9497 20.4419 16.0669C20.3247 16.1842 20.1658 16.25 20 16.25C19.8342 16.25 19.6753 16.1842 19.5581 16.0669C19.4408 15.9497 19.375 15.7908 19.375 15.625Z" fill="#FFFBFB"/>
</svg>
