<svg width="30" height="30" viewBox="0 0 30 30" fill="none" xmlns="http://www.w3.org/2000/svg">
<rect width="30" height="30" rx="15" fill="#55B76B"/>
<path d="M22.475 10.1684L15.6 6.40669C15.4163 6.30519 15.2099 6.25195 15 6.25195C14.7901 6.25195 14.5837 6.30519 14.4 6.40669L7.525 10.17C7.32866 10.2774 7.16477 10.4356 7.05043 10.628C6.93609 10.8204 6.87551 11.0399 6.875 11.2637V18.7356C6.87551 18.9594 6.93609 19.179 7.05043 19.3714C7.16477 19.5638 7.32866 19.7219 7.525 19.8293L14.4 23.5926C14.5837 23.6941 14.7901 23.7474 15 23.7474C15.2099 23.7474 15.4163 23.6941 15.6 23.5926L22.475 19.8293C22.6713 19.7219 22.8352 19.5638 22.9496 19.3714C23.0639 19.179 23.1245 18.9594 23.125 18.7356V11.2645C23.1249 11.0403 23.0645 10.8203 22.9502 10.6274C22.8358 10.4346 22.6717 10.276 22.475 10.1684ZM15 7.50044L21.2766 10.9379L18.9508 12.2114L12.6734 8.77388L15 7.50044ZM15 14.3754L8.72344 10.9379L11.3719 9.48794L17.6484 12.9254L15 14.3754ZM8.125 12.0317L14.375 15.452V22.1543L8.125 18.7364V12.0317ZM21.875 18.7333L15.625 22.1543V15.4551L18.125 14.0872V16.8754C18.125 17.0412 18.1908 17.2002 18.3081 17.3174C18.4253 17.4346 18.5842 17.5004 18.75 17.5004C18.9158 17.5004 19.0747 17.4346 19.1919 17.3174C19.3092 17.2002 19.375 17.0412 19.375 16.8754V13.4028L21.875 12.0317V18.7325V18.7333Z" fill="#FFFBFB"/>
</svg>
