<svg width="30" height="30" viewBox="0 0 30 30" fill="none" xmlns="http://www.w3.org/2000/svg">
<rect width="30" height="30" rx="15" fill="#55B76B"/>
<path d="M13.125 11.875V19.375C13.125 19.5408 13.0592 19.6997 12.9419 19.8169C12.8247 19.9342 12.6658 20 12.5 20C12.3342 20 12.1753 19.9342 12.0581 19.8169C11.9408 19.6997 11.875 19.5408 11.875 19.375V11.875C11.875 11.7092 11.9408 11.5503 12.0581 11.4331C12.1753 11.3158 12.3342 11.25 12.5 11.25C12.6658 11.25 12.8247 11.3158 12.9419 11.4331C13.0592 11.5503 13.125 11.7092 13.125 11.875ZM15 11.25C14.8342 11.25 14.6753 11.3158 14.5581 11.4331C14.4408 11.5503 14.375 11.7092 14.375 11.875V19.375C14.375 19.5408 14.4408 19.6997 14.5581 19.8169C14.6753 19.9342 14.8342 20 15 20C15.1658 20 15.3247 19.9342 15.4419 19.8169C15.5592 19.6997 15.625 19.5408 15.625 19.375V11.875C15.625 11.7092 15.5592 11.5503 15.4419 11.4331C15.3247 11.3158 15.1658 11.25 15 11.25ZM17.5 11.25C17.3342 11.25 17.1753 11.3158 17.0581 11.4331C16.9408 11.5503 16.875 11.7092 16.875 11.875V19.375C16.875 19.5408 16.9408 19.6997 17.0581 19.8169C17.1753 19.9342 17.3342 20 17.5 20C17.6658 20 17.8247 19.9342 17.9419 19.8169C18.0592 19.6997 18.125 19.5408 18.125 19.375V11.875C18.125 11.7092 18.0592 11.5503 17.9419 11.4331C17.8247 11.3158 17.6658 11.25 17.5 11.25ZM21.25 10V21.25C21.25 21.5815 21.1183 21.8995 20.8839 22.1339C20.6495 22.3683 20.3315 22.5 20 22.5H18.75V23.75C18.75 23.9158 18.6842 24.0747 18.5669 24.1919C18.4497 24.3092 18.2908 24.375 18.125 24.375C17.9592 24.375 17.8003 24.3092 17.6831 24.1919C17.5658 24.0747 17.5 23.9158 17.5 23.75V22.5H12.5V23.75C12.5 23.9158 12.4342 24.0747 12.3169 24.1919C12.1997 24.3092 12.0408 24.375 11.875 24.375C11.7092 24.375 11.5503 24.3092 11.4331 24.1919C11.3158 24.0747 11.25 23.9158 11.25 23.75V22.5H10C9.66848 22.5 9.35054 22.3683 9.11612 22.1339C8.8817 21.8995 8.75 21.5815 8.75 21.25V10C8.75 9.66848 8.8817 9.35054 9.11612 9.11612C9.35054 8.8817 9.66848 8.75 10 8.75H11.875V6.875C11.875 6.37772 12.0725 5.90081 12.4242 5.54917C12.7758 5.19754 13.2527 5 13.75 5H16.25C16.7473 5 17.2242 5.19754 17.5758 5.54917C17.9275 5.90081 18.125 6.37772 18.125 6.875V8.75H20C20.3315 8.75 20.6495 8.8817 20.8839 9.11612C21.1183 9.35054 21.25 9.66848 21.25 10ZM13.125 8.75H16.875V6.875C16.875 6.70924 16.8092 6.55027 16.6919 6.43306C16.5747 6.31585 16.4158 6.25 16.25 6.25H13.75C13.5842 6.25 13.4253 6.31585 13.3081 6.43306C13.1908 6.55027 13.125 6.70924 13.125 6.875V8.75ZM20 21.25V10H10V21.25H20Z" fill="#FFFBFB"/>
</svg>
