<svg width="30" height="30" viewBox="0 0 30 30" fill="none" xmlns="http://www.w3.org/2000/svg">
<rect width="30" height="30" rx="15" fill="#55B76B"/>
<path d="M21.25 8.1252H18.0625C17.9191 7.41877 17.5358 6.78366 16.9777 6.32747C16.4195 5.87128 15.7208 5.62207 15 5.62207C14.2792 5.62207 13.5805 5.87128 13.0223 6.32747C12.4642 6.78366 12.0809 7.41877 11.9375 8.1252H8.75C8.58424 8.1252 8.42527 8.19105 8.30806 8.30826C8.19085 8.42547 8.125 8.58444 8.125 8.7502C8.125 8.91596 8.19085 9.07493 8.30806 9.19214C8.42527 9.30935 8.58424 9.3752 8.75 9.3752H11.9375C12.073 10.0344 12.4177 10.6323 12.9203 11.0799C12.0498 11.4789 11.312 12.1192 10.7944 12.9248C10.2768 13.7304 10.0011 14.6676 10 15.6252V20.6252C10 20.9567 10.1317 21.2747 10.3661 21.5091C10.6005 21.7435 10.9185 21.8752 11.25 21.8752H12.5C12.5 22.5382 12.7634 23.1741 13.2322 23.643C13.7011 24.1118 14.337 24.3752 15 24.3752C15.663 24.3752 16.2989 24.1118 16.7678 23.643C17.2366 23.1741 17.5 22.5382 17.5 21.8752H18.75C19.0815 21.8752 19.3995 21.7435 19.6339 21.5091C19.8683 21.2747 20 20.9567 20 20.6252V15.6252C19.9989 14.6676 19.7232 13.7304 19.2056 12.9248C18.688 12.1192 17.9502 11.4789 17.0797 11.0799C17.5823 10.6323 17.927 10.0344 18.0625 9.3752H21.25C21.4158 9.3752 21.5747 9.30935 21.6919 9.19214C21.8092 9.07493 21.875 8.91596 21.875 8.7502C21.875 8.58444 21.8092 8.42547 21.6919 8.30826C21.5747 8.19105 21.4158 8.1252 21.25 8.1252ZM16.25 21.8752C16.25 22.2067 16.1183 22.5247 15.8839 22.7591C15.6495 22.9935 15.3315 23.1252 15 23.1252C14.6685 23.1252 14.3505 22.9935 14.1161 22.7591C13.8817 22.5247 13.75 22.2067 13.75 21.8752V18.1252C13.75 17.7937 13.8817 17.4757 14.1161 17.2413C14.3505 17.0069 14.6685 16.8752 15 16.8752C15.3315 16.8752 15.6495 17.0069 15.8839 17.2413C16.1183 17.4757 16.25 17.7937 16.25 18.1252V21.8752ZM18.75 15.6252V20.6252H17.5V18.1252C17.5 17.4622 17.2366 16.8263 16.7678 16.3574C16.2989 15.8886 15.663 15.6252 15 15.6252C14.337 15.6252 13.7011 15.8886 13.2322 16.3574C12.7634 16.8263 12.5 17.4622 12.5 18.1252V20.6252H11.25V15.6252C11.25 14.6306 11.6451 13.6768 12.3483 12.9736C13.0516 12.2703 14.0054 11.8752 15 11.8752C15.9946 11.8752 16.9484 12.2703 17.6517 12.9736C18.3549 13.6768 18.75 14.6306 18.75 15.6252ZM13.125 8.7502C13.125 8.37936 13.235 8.01685 13.441 7.70851C13.647 7.40017 13.9399 7.15984 14.2825 7.01793C14.6251 6.87601 15.0021 6.83888 15.3658 6.91123C15.7295 6.98358 16.0636 7.16215 16.3258 7.42438C16.588 7.6866 16.7666 8.02069 16.839 8.38441C16.9113 8.74812 16.8742 9.12512 16.7323 9.46773C16.5904 9.81035 16.35 10.1032 16.0417 10.3092C15.7334 10.5152 15.3708 10.6252 15 10.6252C14.5027 10.6252 14.0258 10.4277 13.6742 10.076C13.3225 9.7244 13.125 9.24748 13.125 8.7502Z" fill="#FFFEFE"/>
</svg>
