<svg width="30" height="30" viewBox="0 0 30 30" fill="none" xmlns="http://www.w3.org/2000/svg">
<rect width="30" height="30" rx="15" fill="#55B76B"/>
<path d="M23.8281 10.4422L22.3172 8.93281C22.1999 8.81554 22.0409 8.74965 21.875 8.74965C21.7091 8.74965 21.5501 8.81554 21.4328 8.93281C21.3155 9.05009 21.2497 9.20915 21.2497 9.375C21.2497 9.54085 21.3155 9.69991 21.4328 9.81719L22.9422 11.3281C23.0588 11.4449 23.1245 11.603 23.125 11.768V18.125C23.125 18.2908 23.0592 18.4497 22.9419 18.5669C22.8247 18.6842 22.6658 18.75 22.5 18.75C22.3342 18.75 22.1753 18.6842 22.0581 18.5669C21.9408 18.4497 21.875 18.2908 21.875 18.125V15C21.875 14.5027 21.6775 14.0258 21.3258 13.6742C20.9742 13.3225 20.4973 13.125 20 13.125H18.75V9.375C18.75 8.87772 18.5525 8.40081 18.2008 8.04917C17.8492 7.69754 17.3723 7.5 16.875 7.5H10.625C10.1277 7.5 9.65081 7.69754 9.29917 8.04917C8.94754 8.40081 8.75 8.87772 8.75 9.375V21.25H7.5C7.33424 21.25 7.17527 21.3158 7.05806 21.4331C6.94085 21.5503 6.875 21.7092 6.875 21.875C6.875 22.0408 6.94085 22.1997 7.05806 22.3169C7.17527 22.4342 7.33424 22.5 7.5 22.5H20C20.1658 22.5 20.3247 22.4342 20.4419 22.3169C20.5592 22.1997 20.625 22.0408 20.625 21.875C20.625 21.7092 20.5592 21.5503 20.4419 21.4331C20.3247 21.3158 20.1658 21.25 20 21.25H18.75V14.375H20C20.1658 14.375 20.3247 14.4408 20.4419 14.5581C20.5592 14.6753 20.625 14.8342 20.625 15V18.125C20.625 18.6223 20.8225 19.0992 21.1742 19.4508C21.5258 19.8025 22.0027 20 22.5 20C22.9973 20 23.4742 19.8025 23.8258 19.4508C24.1775 19.0992 24.375 18.6223 24.375 18.125V11.768C24.3759 11.5218 24.3281 11.2779 24.2342 11.0504C24.1404 10.8228 24.0023 10.6161 23.8281 10.4422ZM10 21.25V9.375C10 9.20924 10.0658 9.05027 10.1831 8.93306C10.3003 8.81585 10.4592 8.75 10.625 8.75H16.875C17.0408 8.75 17.1997 8.81585 17.3169 8.93306C17.4342 9.05027 17.5 9.20924 17.5 9.375V21.25H10ZM16.25 13.75C16.25 13.9158 16.1842 14.0747 16.0669 14.1919C15.9497 14.3092 15.7908 14.375 15.625 14.375H11.875C11.7092 14.375 11.5503 14.3092 11.4331 14.1919C11.3158 14.0747 11.25 13.9158 11.25 13.75C11.25 13.5842 11.3158 13.4253 11.4331 13.3081C11.5503 13.1908 11.7092 13.125 11.875 13.125H15.625C15.7908 13.125 15.9497 13.1908 16.0669 13.3081C16.1842 13.4253 16.25 13.5842 16.25 13.75Z" fill="#FFFBFB"/>
</svg>
