<svg width="35" height="35" viewBox="0 0 35 35" fill="none" xmlns="http://www.w3.org/2000/svg">
<path d="M17.5 3.28125C14.6878 3.28125 11.9388 4.11517 9.60049 5.67754C7.26223 7.23992 5.43978 9.46058 4.36359 12.0587C3.28741 14.6569 3.00583 17.5158 3.55447 20.2739C4.1031 23.0321 5.4573 25.5656 7.44583 27.5542C9.43436 29.5427 11.9679 30.8969 14.7261 31.4455C17.4842 31.9942 20.3431 31.7126 22.9413 30.6364C25.5394 29.5602 27.7601 27.7378 29.3225 25.3995C30.8848 23.0613 31.7188 20.3122 31.7188 17.5C31.7148 13.7302 30.2155 10.1159 27.5498 7.45022C24.8841 4.78455 21.2698 3.28523 17.5 3.28125ZM8.51622 25.4939L8.86075 25.2684C9.1616 25.0699 9.40876 24.8002 9.58026 24.4832C9.75175 24.1662 9.84227 23.8118 9.84376 23.4514L9.87247 18.498L12.7381 14.2188C12.7521 14.2296 12.7667 14.2396 12.7818 14.2488L15.4711 16.0084C15.9218 16.3265 16.4763 16.4618 17.0229 16.3871L21.3281 15.8033C21.859 15.7325 22.3455 15.4693 22.6953 15.0637L25.7264 11.5418C26.0653 11.1446 26.2511 10.6393 26.25 10.1172V9.25176C27.7294 10.8169 28.7608 12.751 29.2363 14.8515C29.7119 16.952 29.614 19.1417 28.9529 21.1914L26.7463 19.1734C26.4395 18.8919 26.0588 18.7037 25.6487 18.631C25.2387 18.5584 24.8165 18.6043 24.4316 18.7633L20.2672 20.4928C19.919 20.6389 19.6143 20.8723 19.3825 21.1705C19.1507 21.4686 18.9996 21.8214 18.9438 22.1949L18.617 24.4084C18.5385 24.9412 18.6592 25.4842 18.9561 25.9335C19.253 26.3828 19.7053 26.7067 20.2262 26.8434L23.1602 27.6172L23.4828 27.9412C21.087 29.3159 18.2906 29.823 15.5646 29.3773C12.8386 28.9315 10.3494 27.5601 8.51622 25.4939Z" fill="white" fill-opacity="0.9"/>
</svg>
