<svg width="132" height="132" viewBox="0 0 132 132" fill="none" xmlns="http://www.w3.org/2000/svg">
<g filter="url(#filter0_d_34_548)">
<circle cx="66" cy="66" r="55" fill="white"/>
</g>
<g clip-path="url(#clip0_34_548)">
<path d="M31 91.9692V58.6147C31.4073 57.9627 32.0154 57.8093 32.7495 57.8129C38.5004 57.8294 44.2494 57.8221 50.0003 57.8221C50.2669 57.8221 50.5335 57.8221 50.8659 57.8221V57.013C50.8659 54.7138 50.8787 52.4127 50.8568 50.1135C50.8513 49.4743 51.054 48.9812 51.5106 48.5374C52.7195 47.3613 53.9212 46.1761 55.0827 44.9543C55.3292 44.6932 55.5027 44.2585 55.5137 43.8988C55.5612 42.3976 55.5082 40.8928 55.5447 39.3898C55.5594 38.7579 55.4169 38.2849 54.9238 37.8393C54.1641 37.1508 54.197 36.5372 54.9384 35.7902C56.2387 34.479 57.5463 33.1751 58.863 31.8803C59.1863 31.5607 59.5534 31.2904 59.9003 31C73.6428 31 87.3853 31 101.128 31V45.3543C100.752 45.9898 100.193 46.1816 99.4641 46.1798C92.6888 46.1615 85.9116 46.1688 79.1362 46.1688H78.4148L78.3162 46.3386C79.0997 47.0892 79.9306 47.796 80.6428 48.6068C80.9697 48.9812 81.2071 49.5492 81.2364 50.0459C81.3167 51.4083 81.2638 52.7762 81.2638 54.144C81.2638 55.3457 81.2638 56.5455 81.2638 57.8202H82.1312C87.8803 57.8202 93.6311 57.8276 99.3801 57.8111C100.114 57.8093 100.722 57.9627 101.13 58.6128V91.9674C100.889 92.2669 100.673 92.592 100.403 92.8622C97.9246 95.3478 95.4318 97.8187 92.9572 100.312C92.4934 100.779 91.993 100.998 91.3227 100.998C74.4829 100.987 57.6449 100.987 40.8051 100.998C40.1367 100.998 39.6363 100.779 39.1706 100.312C36.7308 97.8516 34.269 95.4135 31.8236 92.959C31.5223 92.6559 31.2739 92.2998 31 91.9674L31 91.9692ZM33.3723 60.1925C33.3577 60.3825 33.3358 60.5359 33.3339 60.6893C33.3339 70.6916 33.3285 80.6921 33.3486 90.6945C33.3486 90.9867 33.5312 91.3465 33.743 91.562C35.9528 93.8009 38.179 96.0271 40.4271 98.2278C40.6681 98.4633 41.0864 98.6441 41.4224 98.6441C57.8586 98.6642 74.293 98.6642 90.7292 98.6441C91.047 98.6441 91.4414 98.4798 91.6697 98.257C93.9178 96.0545 96.1477 93.832 98.3501 91.5857C98.5985 91.3319 98.7756 90.8863 98.7775 90.5301C98.7994 80.6648 98.7957 70.7994 98.7957 60.9358C98.7957 60.6948 98.7957 60.4537 98.7957 60.1907H33.3723V60.1925ZM98.7738 33.3759H81.3039V43.7892H98.7738V33.3759ZM78.875 43.8221V33.3285H78.0021C72.5964 33.3285 67.1925 33.3431 61.7869 33.312C61.0217 33.3065 60.4665 33.4892 59.9423 34.0644C59.0767 35.0141 58.1216 35.8834 57.2596 36.7308C58.7115 38.1753 60.0775 39.5359 61.4326 40.8836C61.9823 40.3431 62.5794 39.7587 63.2972 39.0556C62.7621 38.5734 62.1685 38.1589 61.7467 37.611C61.5166 37.3115 61.4344 36.7362 61.5549 36.3765C61.6554 36.0751 62.1448 35.7373 62.4717 35.7245C62.8406 35.7117 63.2972 35.9674 63.5857 36.2432C64.8403 37.4357 66.0347 38.6921 67.2875 39.8865C67.534 40.1221 67.9431 40.2992 68.281 40.3047C70.5382 40.3412 72.7955 40.3175 75.0545 40.3266C76.1558 40.3303 76.5794 40.7649 76.5904 41.8643C76.5977 42.5127 76.5904 43.161 76.5904 43.8239H78.8696L78.875 43.8221ZM57.9097 50.8531V57.7764H74.209V50.8531H57.9097ZM55.4827 57.7892V47.7741C54.754 48.5411 54.1385 49.1456 53.5815 49.7994C53.3825 50.0313 53.2199 50.3801 53.2163 50.6796C53.1834 52.6374 53.1998 54.5951 53.1998 56.5528C53.1998 56.9546 53.1998 57.3582 53.1998 57.7892H55.4845H55.4827ZM78.9298 57.7892C78.9298 55.2799 78.9298 52.8474 78.9262 50.4148C78.9262 50.3071 78.9097 50.1665 78.8422 50.0989C78.1409 49.3775 77.4286 48.6671 76.6361 47.8727V57.791H78.928L78.9298 57.7892ZM60.209 48.4607C60.209 46.7422 60.209 45.0639 60.2053 43.3874C60.2053 43.2797 60.1889 43.1391 60.1213 43.0697C59.4219 42.3501 58.7096 41.6415 57.9097 40.838V48.4607H60.209ZM62.5521 48.448H64.833V40.796C64.0331 41.6288 63.372 42.3081 62.7274 43.0039C62.6306 43.108 62.5612 43.2833 62.5612 43.4258C62.5502 45.0804 62.5539 46.7368 62.5539 48.448H62.5521ZM67.24 48.4644H69.5338V42.6588C68.8617 42.6588 68.2299 42.6387 67.6016 42.6752C67.4738 42.6825 67.2565 42.9071 67.2546 43.0331C67.2309 44.8247 67.2382 46.6181 67.2382 48.4626L67.24 48.4644ZM71.9645 42.7026V48.4425H74.2181V42.7026H71.9645Z" fill="black"/>
<path d="M98.7738 33.376V43.7892H81.304V33.376H98.7738Z" fill="#55B76B"/>
<path d="M78.875 43.8225H76.5959C76.5959 43.1595 76.6014 42.5112 76.5959 41.8629C76.5831 40.7635 76.1594 40.3307 75.06 40.3252C72.8028 40.3161 70.5437 40.3398 68.2865 40.3033C67.9486 40.2978 67.5395 40.1188 67.293 39.8851C66.0402 38.6907 64.8476 37.4343 63.5912 36.2417C63.3026 35.9678 62.8461 35.7103 62.4772 35.7231C62.1503 35.734 61.6608 36.0737 61.5604 36.375C61.4399 36.7348 61.5202 37.3083 61.7522 37.6096C62.1722 38.1575 62.7676 38.572 63.3026 39.0541C62.5849 39.7572 61.9896 40.3435 61.438 40.8822C60.083 39.5344 58.7169 38.1757 57.2651 36.7293C58.1271 35.882 59.0822 35.0127 59.9478 34.063C60.472 33.4877 61.0253 33.3069 61.7923 33.3106C67.1962 33.3435 72.6019 33.327 78.0076 33.327H78.8805V43.8206L78.875 43.8225Z" fill="#55B76B"/>
<path d="M60.2071 48.4587H57.9079V40.8359C58.7078 41.6395 59.42 42.3481 60.1195 43.0676C60.1871 43.137 60.2035 43.2776 60.2035 43.3854C60.209 45.0619 60.2071 46.7402 60.2071 48.4587Z" fill="#55B76B"/>
<path d="M62.5521 48.4479C62.5521 46.7367 62.5484 45.0803 62.5594 43.4257C62.5594 43.2832 62.6288 43.1079 62.7256 43.0038C63.3702 42.3099 64.0313 41.6305 64.8312 40.7959V48.4479H62.5502H62.5521Z" fill="#55B76B"/>
<path d="M67.24 48.4624C67.24 46.6179 67.2327 44.8263 67.2564 43.033C67.2564 42.9069 67.4756 42.6823 67.6034 42.675C68.2317 42.6367 68.8635 42.6586 69.5356 42.6586V48.4642H67.2418L67.24 48.4624Z" fill="#55B76B"/>
<path d="M71.9645 42.7012H74.2181V48.4411H71.9645V42.7012Z" fill="#55B76B"/>
<path d="M77.2679 71.5624C77.5766 71.3487 77.8213 71.1862 78.0569 71.0127C78.5116 70.6748 78.9883 70.5251 79.5142 70.841C80.042 71.1606 80.1224 71.6592 80.0365 72.2125C79.927 72.9102 79.8429 73.6133 79.6804 74.2981C79.5434 74.877 79.6694 75.3336 79.9963 75.8249C81.4701 78.0437 82.9092 80.2864 84.3592 82.5235C84.8907 83.3435 84.8816 83.6996 84.3063 84.505C82.5312 86.9887 80.7433 89.4633 78.9864 91.9597C78.5481 92.5825 78.0222 92.84 77.2606 92.829C74.9796 92.798 72.6968 92.8181 70.414 92.8181C70.1675 92.8181 69.9209 92.8181 69.5721 92.8181C69.5721 93.2399 69.6598 93.6253 69.5502 93.943C69.4114 94.3412 69.1868 94.7922 68.8581 95.0205C68.4399 95.3109 67.9358 95.1356 67.5468 94.7795C67.4464 94.6863 67.3313 94.6023 67.2565 94.4909C66.2538 93.0171 64.8604 92.6939 63.1346 92.7797C60.3806 92.9167 57.6139 92.798 54.8526 92.8272C54.0856 92.8363 53.5706 92.5606 53.1359 91.9415C51.3919 89.4633 49.6167 87.0088 47.8544 84.5434C47.2335 83.6741 47.2317 83.3727 47.827 82.4505C49.4341 79.965 51.043 77.4794 52.694 74.9263C52.3287 74.6542 51.9781 74.3803 51.6128 74.1283C51.1325 73.7959 50.7764 73.3941 50.9097 72.7677C51.0485 72.1103 51.5562 71.8802 52.1607 71.7852C52.7232 71.6975 53.2838 71.5295 53.8463 71.5186C54.7503 71.5003 55.2489 71.0437 55.7073 70.3078C57.1628 67.9683 58.706 65.6837 60.1834 63.3571C60.5834 62.727 61.0874 62.4732 61.8234 62.4786C64.6522 62.5006 67.4829 62.5024 70.3136 62.4786C71.0843 62.4713 71.5774 62.7654 71.9883 63.4155C73.5716 65.9175 75.197 68.392 76.8077 70.8757C76.9429 71.0839 77.0853 71.2885 77.2716 71.5642L77.2679 71.5624ZM69.563 85.8217C70.6204 85.8217 71.5974 85.6939 72.527 85.8491C74.3076 86.1486 75.3906 85.4254 76.1156 83.8749C76.2763 83.5316 76.2909 83.3326 76.0937 83.0294C75.4362 82.0177 74.7861 81.0004 74.1779 79.9576C73.9113 79.4993 73.5899 79.2783 73.0566 79.2253C72.264 79.1468 71.4806 78.9751 70.6953 78.8382C70.1602 78.745 69.7475 78.4893 69.6251 77.9269C69.5064 77.3772 69.7182 76.9498 70.1748 76.6321C70.6003 76.3344 71.0203 76.0276 71.4166 75.7445C71.4039 75.6331 71.413 75.582 71.3911 75.5473C70.6003 74.2689 69.815 72.9869 69.0097 71.7195C68.5367 70.9762 68.1824 69.9699 67.4957 69.6065C66.7981 69.2376 65.7571 69.4805 64.8696 69.5243C64.6102 69.5371 64.2687 69.7252 64.1281 69.9407C63.3191 71.1789 62.6196 72.4938 61.7631 73.6955C61.0125 74.7492 60.682 75.792 61.1057 77.0521C61.2554 77.4995 61.2609 77.9926 61.3485 78.462C61.449 79.0044 61.3266 79.47 60.8555 79.7805C60.3825 80.0928 59.9058 80.0216 59.4511 79.7075C59.1424 79.4938 58.8283 79.2838 58.4923 79.0537C57.9572 79.9193 57.4623 80.7082 56.9802 81.5081C56.5839 82.1674 55.8881 82.8468 55.9082 83.4987C55.9283 84.158 56.6387 84.8155 57.1007 85.4346C57.2468 85.63 57.5609 85.8053 57.8002 85.8071C60.2418 85.8345 62.6854 85.8327 65.1271 85.8089C65.3864 85.8071 65.6968 85.672 65.8941 85.4967C66.4712 84.9798 66.957 84.3534 67.5706 83.8914C67.8829 83.6558 68.4581 83.5079 68.7923 83.6375C69.1284 83.7672 69.3932 84.2585 69.5411 84.6474C69.6616 84.9652 69.5648 85.3652 69.5648 85.8254L69.563 85.8217ZM55.0736 73.6717C55.6415 74.415 55.4187 75.0432 54.9823 75.7043C53.3898 78.1168 51.8375 80.5548 50.2505 82.971C50.013 83.3307 50.0112 83.5754 50.2669 83.9279C51.7425 85.9514 53.198 87.9895 54.6407 90.0367C54.8782 90.3746 55.1357 90.4969 55.5429 90.4896C56.8195 90.4659 58.0978 90.4805 59.3744 90.4805H63.1912C62.3822 89.6715 62.426 88.9245 63.2077 88.1502C61.0509 88.1502 59.0657 88.1283 57.0824 88.1611C56.3592 88.1739 55.8826 87.9073 55.5064 87.3046C54.8909 86.3203 54.2463 85.3542 53.576 84.4064C53.1323 83.7818 53.1487 83.2266 53.556 82.5856C54.6791 80.8196 55.7767 79.0354 56.856 77.242C57.2431 76.5974 57.6632 76.0769 58.5982 76.2431C58.4211 75.182 58.2585 74.2086 58.0869 73.175C57.0605 73.343 56.1017 73.5 55.0736 73.6699V73.6717ZM58.1837 70.7424C59.5333 70.6201 59.7195 70.7041 60.2912 71.661C61.0326 70.463 61.7868 69.2997 62.4808 68.1017C62.8662 67.4351 63.3647 67.1301 64.1409 67.1538C65.3718 67.1922 66.6045 67.1904 67.8335 67.1538C68.6024 67.1301 69.1046 67.4132 69.5064 68.0779C70.8505 70.295 72.2348 72.4901 73.6209 74.6816C74.0811 75.4085 74.5687 76.1079 73.7853 76.9845C74.8518 77.1617 75.7887 77.3151 76.784 77.4813C76.9593 76.4348 77.1255 75.4395 77.3063 74.3602C76.448 74.5027 76.0407 74.0114 75.6645 73.427C73.9296 70.7278 72.1891 68.0323 70.4232 65.3532C70.2643 65.1121 69.9191 64.8509 69.6543 64.8473C67.2601 64.8089 64.8659 64.8199 62.4717 64.8345C62.2726 64.8345 61.9841 64.9185 61.8891 65.0646C60.6564 66.9183 59.4511 68.7883 58.1818 70.7424H58.1837ZM76.9374 79.9796C77.5127 80.9036 78.0477 81.7912 78.6121 82.6587C78.9956 83.2485 78.9846 83.7818 78.581 84.3626C77.8925 85.3524 77.2259 86.3586 76.5758 87.374C76.2233 87.9256 75.7686 88.1703 75.102 88.1611C73.0493 88.1338 70.9966 88.1374 68.9457 88.1593C68.2792 88.1666 67.6747 88.1009 67.3313 87.5311C66.683 88.1411 66.0584 88.7273 65.4631 89.2879C66.073 89.9143 66.6721 90.528 67.3131 91.1872C67.6874 90.5261 68.3047 90.475 68.9695 90.4787C71.5007 90.4914 74.0318 90.4732 76.563 90.4951C77.0031 90.4987 77.2643 90.3599 77.5145 90.0038C78.8093 88.1593 80.1278 86.3331 81.4391 84.4995C81.9346 83.8068 81.9462 83.097 81.4738 82.3701C80.6702 81.1356 79.8667 79.9029 79.0321 78.6208C78.634 79.8536 78.5445 79.912 76.9374 79.9832V79.9796Z" fill="#55B76B"/>
</g>
<defs>
<filter id="filter0_d_34_548" x="0" y="0" width="132" height="132" filterUnits="userSpaceOnUse" color-interpolation-filters="sRGB">
<feFlood flood-opacity="0" result="BackgroundImageFix"/>
<feColorMatrix in="SourceAlpha" type="matrix" values="0 0 0 0 0 0 0 0 0 0 0 0 0 0 0 0 0 0 127 0" result="hardAlpha"/>
<feMorphology radius="1" operator="dilate" in="SourceAlpha" result="effect1_dropShadow_34_548"/>
<feOffset/>
<feGaussianBlur stdDeviation="5"/>
<feComposite in2="hardAlpha" operator="out"/>
<feColorMatrix type="matrix" values="0 0 0 0 0.545098 0 0 0 0 0.823529 0 0 0 0 0.627451 0 0 0 0.4 0"/>
<feBlend mode="normal" in2="BackgroundImageFix" result="effect1_dropShadow_34_548"/>
<feBlend mode="normal" in="SourceGraphic" in2="effect1_dropShadow_34_548" result="shape"/>
</filter>
<clipPath id="clip0_34_548">
<rect width="70.1278" height="70" fill="white" transform="translate(31 31)"/>
</clipPath>
</defs>
</svg>
