<svg width="132" height="132" viewBox="0 0 132 132" fill="none" xmlns="http://www.w3.org/2000/svg">
<g filter="url(#filter0_d_34_537)">
<circle cx="66" cy="66" r="55" fill="white"/>
</g>
<g clip-path="url(#clip0_34_537)">
<path d="M67.0454 31C67.7199 31.0848 68.3962 31.1601 69.067 31.2581C77.5245 32.5016 83.8285 36.9272 88.0601 44.2901C89.9554 47.5891 90.9276 51.2027 91.1386 55.0216C91.4777 61.1994 89.8028 66.7649 86.1647 71.7501C85.7766 72.2833 85.3583 72.8014 84.9062 73.28C84.567 73.6398 84.5727 73.9149 84.8176 74.3369C88.2259 80.2039 91.6134 86.0821 95.0084 91.9566C95.2779 92.4219 95.5171 92.8515 95.1667 93.4073C94.6392 94.2494 94.1663 94.4567 93.2299 94.0893C91.0689 93.2415 88.9173 92.3767 86.7601 91.5195C86.1911 91.2934 85.6202 91.0692 84.9457 90.8035C84.8176 91.625 84.6857 92.3974 84.5765 93.1718C84.2825 95.2235 83.9981 97.2752 83.7079 99.327C83.6721 99.5757 83.6382 99.8262 83.5685 100.066C83.2934 101.021 82.1573 101.3 81.4659 100.572C81.2662 100.361 81.1192 100.096 80.9704 99.8413C77.5697 93.9706 74.169 88.0999 70.7852 82.2179C70.5384 81.7883 70.3236 81.6112 69.7885 81.7092C66.9606 82.2179 64.1232 82.1972 61.2952 81.6998C60.8073 81.6131 60.6189 81.7865 60.4003 82.1651C57.0147 88.0453 53.614 93.916 50.2189 99.7904C49.8459 100.435 49.4823 101.122 48.5854 100.985C47.6246 100.838 47.5586 100.043 47.4512 99.2761C47.0575 96.482 46.643 93.6918 46.2266 90.8186C45.9402 90.9222 45.6915 91.0051 45.4485 91.1012C43.0181 92.0696 40.5895 93.0418 38.1572 94.0083C37.9462 94.0912 37.7295 94.1684 37.5091 94.2155C36.5294 94.4265 35.7796 93.6447 36.0584 92.6857C36.1451 92.3842 36.3071 92.0997 36.4653 91.8266C39.7982 86.0482 43.1255 80.266 46.4885 74.5046C46.8276 73.9224 46.7504 73.589 46.3397 73.1029C41.5165 67.4093 39.444 60.8038 40.42 53.4334C41.6879 43.8398 46.9727 37.0817 55.7279 33.0555C58.2638 31.8893 60.9806 31.2732 63.7822 31.1055C63.9593 31.0942 64.1345 31.0358 64.3097 31C65.2216 31 66.1335 31 67.0454 31ZM88.6422 56.4271C88.5951 43.7644 78.4194 33.5529 65.7171 33.5284C53.028 33.5039 42.7524 43.8963 42.7731 56.5779C42.7939 69.3932 52.9451 79.4728 65.7115 79.5124C78.3082 79.552 88.6912 69.0371 88.6441 56.4271H88.6422ZM91.0519 90.3871C91.084 90.3476 91.1179 90.308 91.1499 90.2684C88.3257 85.385 85.5015 80.5015 82.7244 75.6972C81.1607 76.7466 79.7269 77.845 78.1669 78.7192C76.5919 79.601 74.8924 80.2585 73.2006 81.0366C75.9965 85.9106 78.8245 90.8355 81.6505 95.7605C82.1178 93.5109 82.4494 91.3292 82.7753 89.1474C82.9618 87.9002 83.6778 87.4801 84.8591 87.9454C86.5528 88.6105 88.2428 89.2831 89.9347 89.9519C90.3059 90.0989 90.6789 90.2421 91.0501 90.3871H91.0519ZM48.6702 75.701C45.8894 80.511 43.0633 85.3963 40.1487 90.4324C40.5368 90.2986 40.7497 90.2364 40.955 90.1554C42.8372 89.4112 44.7137 88.6576 46.5978 87.919C47.6566 87.5045 48.4102 87.9228 48.5892 89.0306C48.8285 90.5134 49.0433 91.9999 49.2712 93.4826C49.3862 94.2268 49.5067 94.9692 49.6236 95.7134C49.6725 95.7152 49.7215 95.7171 49.7705 95.719C52.5909 90.8016 55.4095 85.8843 58.1903 81.0347C56.4758 80.2472 54.7953 79.5972 53.239 78.7249C51.6791 77.8507 50.2434 76.7542 48.6702 75.701Z" fill="black"/>
<path d="M88.6422 56.4271C88.6893 69.0371 78.3063 79.5519 65.7096 79.5124C52.9433 79.4728 42.792 69.3931 42.7713 56.5778C42.7505 43.8963 53.0262 33.5039 65.7152 33.5284C78.4175 33.5529 88.5933 43.7644 88.6404 56.4271H88.6422ZM65.7171 76.4018C76.7124 76.3792 85.5298 67.56 85.5825 56.5345C85.6334 45.5844 76.6484 36.5956 65.6794 36.6276C54.6822 36.6597 45.8442 45.5072 45.8272 56.5044C45.8084 67.511 54.7199 76.4244 65.719 76.4018H65.7171Z" fill="#55B76B"/>
<path d="M65.7171 76.4022C54.718 76.4248 45.8065 67.5095 45.8253 56.5047C45.8442 45.5075 54.6804 36.66 65.6776 36.628C76.6446 36.596 85.6315 45.5848 85.5807 56.5349C85.5298 67.5603 76.7106 76.3815 65.7152 76.4022H65.7171ZM48.3198 56.5368C48.3349 66.0719 56.1348 73.87 65.6907 73.9002C75.3182 73.9303 83.0711 66.1398 83.0579 56.4426C83.0466 46.8867 75.2523 39.0924 65.7002 39.0829C56.2083 39.0754 48.3047 47.011 48.3179 56.5368H48.3198Z" fill="black"/>
<path d="M65.8754 64.0159C64.4812 65.0277 63.1134 66.0451 61.7211 67.0285C60.2082 68.0968 58.4296 67.6992 57.5102 66.111C57.1259 65.4459 57.0637 64.7356 57.2992 64.0046C57.7683 62.5558 58.2243 61.1013 58.7292 59.6638C58.8931 59.2003 58.846 58.9441 58.4183 58.6539C57.156 57.7986 55.9106 56.9149 54.6954 55.9936C53.7383 55.2683 53.3823 54.2547 53.6422 53.0847C53.8796 52.0202 54.5711 51.3325 55.6299 51.0499C55.888 50.9802 56.1688 50.967 56.4382 50.9651C57.919 50.9557 59.3999 50.9387 60.8808 50.9708C61.3499 50.9802 61.5609 50.8427 61.6947 50.3905C62.1355 48.9077 62.5877 47.4288 63.0983 45.9705C63.6541 44.3822 65.2329 43.6814 66.808 44.2767C67.7349 44.6272 68.2342 45.3751 68.5262 46.2757C68.969 47.6379 69.4061 49.0038 69.8112 50.3754C69.9412 50.8125 70.1296 50.9858 70.6157 50.9745C72.1417 50.9387 73.6678 50.9538 75.1939 50.9708C76.5071 50.9858 77.5037 51.7602 77.9201 53.0545C78.3403 54.3583 78.0369 55.289 76.8745 56.1406C75.68 57.0148 74.4798 57.8815 73.2609 58.718C72.9123 58.9573 72.852 59.1702 72.9877 59.5602C73.4738 60.9562 73.9127 62.3674 74.3875 63.7672C74.8077 65.0069 74.478 66.2184 73.4813 67.0191C72.5299 67.7821 71.2657 67.8537 70.1748 67.1171C68.9502 66.2881 67.7726 65.3894 66.5725 64.5209C66.3521 64.3607 66.1316 64.2043 65.8735 64.0216L65.8754 64.0159ZM59.4225 53.4144C58.5332 53.4144 57.6459 53.3937 56.7585 53.4276C56.4966 53.437 56.2422 53.5952 55.9822 53.6857C56.133 53.8929 56.2441 54.1492 56.4382 54.2999C57.7646 55.3399 59.106 56.3573 60.4437 57.3841C61.3405 58.0718 61.414 58.3016 61.0729 59.3586C60.5435 61.0033 59.999 62.6443 59.4866 64.2929C59.415 64.5227 59.4866 64.7959 59.4922 65.0484C59.7372 64.9787 60.0216 64.9674 60.2176 64.828C61.6457 63.8106 63.0531 62.7649 64.4699 61.7325C65.3592 61.0862 65.8 61.0862 66.6836 61.7306C68.027 62.7084 69.359 63.7032 70.7155 64.664C70.9887 64.8581 71.3429 64.9353 71.6594 65.0672C71.6425 64.7338 71.6933 64.3796 71.5972 64.0706C71.1149 62.5068 70.5931 60.9543 70.0862 59.3981C69.7528 58.3675 69.8677 58.0133 70.7588 57.3615C72.1926 56.312 73.632 55.2739 75.0601 54.217C75.2448 54.0794 75.3691 53.859 75.5198 53.6781C75.2843 53.5896 75.0488 53.4276 74.8133 53.4257C73.1045 53.4031 71.3957 53.4144 69.6887 53.4144C68.4754 53.4144 68.1231 53.16 67.7519 52.0145C67.247 50.4564 66.7552 48.8964 66.2334 47.344C66.1392 47.0651 65.93 46.8259 65.7718 46.5677C65.6022 46.8334 65.3723 47.0783 65.2744 47.3685C64.7431 48.9416 64.2476 50.5261 63.7351 52.1031C63.3922 53.1563 63.0437 53.4106 61.9509 53.4125C61.1087 53.4144 60.2647 53.4125 59.4225 53.4125V53.4144Z" fill="black"/>
<path d="M59.4206 53.4141C60.2628 53.4141 61.1068 53.416 61.949 53.4141C63.0418 53.4103 63.3903 53.1579 63.7332 52.1047C64.2457 50.5258 64.7412 48.9414 65.2725 47.3701C65.3705 47.0799 65.6003 46.835 65.7699 46.5693C65.9262 46.8275 66.1373 47.0667 66.2315 47.3456C66.7533 48.898 67.2451 50.458 67.75 52.0161C68.1212 53.1616 68.4716 53.416 69.6868 53.416C71.3956 53.416 73.1045 53.4066 74.8114 53.4273C75.0488 53.431 75.2824 53.5912 75.5179 53.6797C75.3653 53.8606 75.2429 54.081 75.0582 54.2186C73.6301 55.2755 72.1907 56.3136 70.757 57.3631C69.8658 58.0149 69.7509 58.3691 70.0843 59.3997C70.5893 60.9559 71.1112 62.5084 71.5954 64.0722C71.6914 64.3811 71.6406 64.7353 71.6575 65.0688C71.341 64.9369 70.9868 64.8597 70.7136 64.6656C69.3571 63.7048 68.0251 62.71 66.6818 61.7322C65.7981 61.0878 65.3573 61.0878 64.468 61.7341C63.0493 62.7646 61.6419 63.8103 60.2157 64.8295C60.0216 64.969 59.7353 64.9784 59.4903 65.05C59.4847 64.7975 59.4131 64.5243 59.4847 64.2945C59.9971 62.6441 60.5416 61.0049 61.0711 59.3602C61.4121 58.3032 61.3367 58.0752 60.4418 57.3857C59.106 56.3589 57.7627 55.3415 56.4363 54.3015C56.2422 54.1489 56.1311 53.8945 55.9803 53.6873C56.2385 53.5968 56.4947 53.4386 56.7566 53.4292C57.644 53.3971 58.5332 53.416 59.4206 53.416V53.4141Z" fill="#55B76B"/>
</g>
<defs>
<filter id="filter0_d_34_537" x="0" y="0" width="132" height="132" filterUnits="userSpaceOnUse" color-interpolation-filters="sRGB">
<feFlood flood-opacity="0" result="BackgroundImageFix"/>
<feColorMatrix in="SourceAlpha" type="matrix" values="0 0 0 0 0 0 0 0 0 0 0 0 0 0 0 0 0 0 127 0" result="hardAlpha"/>
<feMorphology radius="1" operator="dilate" in="SourceAlpha" result="effect1_dropShadow_34_537"/>
<feOffset/>
<feGaussianBlur stdDeviation="5"/>
<feComposite in2="hardAlpha" operator="out"/>
<feColorMatrix type="matrix" values="0 0 0 0 0.545098 0 0 0 0 0.823529 0 0 0 0 0.627451 0 0 0 0.4 0"/>
<feBlend mode="normal" in2="BackgroundImageFix" result="effect1_dropShadow_34_537"/>
<feBlend mode="normal" in="SourceGraphic" in2="effect1_dropShadow_34_537" result="shape"/>
</filter>
<clipPath id="clip0_34_537">
<rect width="59.34" height="70" fill="white" transform="translate(36 31)"/>
</clipPath>
</defs>
</svg>
