<svg width="132" height="132" viewBox="0 0 132 132" fill="none" xmlns="http://www.w3.org/2000/svg">
<g filter="url(#filter0_d_34_521)">
<circle cx="66" cy="66" r="55" fill="white"/>
</g>
<g clip-path="url(#clip0_34_521)">
<path d="M30 65.5967C30.1984 64.4869 30.2842 63.3403 30.6174 62.2722C31.3229 60.0036 32.1314 57.7644 32.9496 55.5326C33.7826 53.2542 34.6768 51.0004 35.5465 48.7342C35.6273 48.5236 35.718 48.3178 35.8233 48.0654C36.5926 48.3594 37.3202 48.6362 38.1091 48.9376C38.0184 49.2071 37.9498 49.4423 37.8641 49.6701C36.4358 53.4527 34.9536 57.2132 33.5915 61.0179C31.955 65.5893 32.1975 70.1461 33.9884 74.6367C34.0986 74.9135 34.2064 75.1928 34.3387 75.5333C33.5817 75.8493 32.8467 76.158 32.0579 76.4888C31.22 74.5436 30.5782 72.6057 30.2817 70.5625C30.1886 69.928 30.0931 69.2911 30 68.6541C30 67.635 30 66.6158 30 65.5967Z" fill="black"/>
<path d="M101.151 94.7845H98.6942V83.5273H101.151V94.7845Z" fill="black"/>
<path d="M101.151 99.787H98.6501C98.6501 99.3435 98.6501 98.9393 98.6501 98.5326C98.6501 98.126 98.6501 97.7585 98.6501 97.2832H101.151V99.7845V99.787Z" fill="black"/>
<path d="M57.3969 81.5404V84.7056C58.4723 85.1442 58.6291 85.3769 58.6291 86.5283C58.6291 89.5392 58.6291 92.5501 58.6291 95.561C58.6291 96.683 58.4552 96.9354 57.3748 97.3469V101.002H54.898V97.3249H42.4037V100.99H39.8926V97.3273C38.7558 97.124 38.5941 96.3351 38.6039 95.3625C38.6358 92.4692 38.6162 89.5735 38.6162 86.6778C38.6162 85.225 38.8489 84.9457 40.3115 84.7081C39.9465 83.8237 39.5839 82.954 39.2262 82.0794C38.234 79.6638 37.1879 77.2678 36.2643 74.8253C34.2897 69.5949 34.4441 64.3619 36.4211 59.1609C38.7705 52.9823 41.1297 46.8062 43.489 40.6301C44.5449 37.8618 46.7252 36.7667 49.5744 37.5188C49.8145 37.5825 50.1869 37.4428 50.3927 37.2713C52.3771 35.6128 54.5281 34.236 56.9044 33.2095C62.2696 30.887 67.7965 30.397 73.4753 31.7322C77.4833 32.6754 81.0675 34.4907 84.2008 37.166C84.6296 37.531 84.9823 37.6241 85.5458 37.4526C87.6772 36.7985 90.0144 37.7785 90.889 39.8265C92.06 42.5655 93.0767 45.373 94.1375 48.1585C95.6686 52.1763 97.2439 56.1794 98.682 60.229C100.544 65.4742 100.238 70.6875 98.1332 75.8126C96.923 78.7623 95.6931 81.7021 94.4437 84.7154C94.6373 84.7424 94.7818 84.762 94.9263 84.7816C95.7078 84.8967 96.1341 85.3279 96.1366 86.1339C96.1513 89.3996 96.1464 92.6652 96.139 95.9309C96.139 96.7271 95.6613 97.146 94.8969 97.32V100.985H92.425V97.342H79.9087V100.997H77.4294V97.3273C76.3049 97.124 76.1163 96.3719 76.1261 95.414C76.1555 92.4741 76.1555 89.5319 76.1261 86.5896C76.1163 85.6488 76.3417 84.9408 77.3706 84.7424V81.5478C70.7192 84.1471 64.085 84.1642 57.3944 81.5404H57.3969ZM48.8321 51.5884C52.3183 51.9877 53.6265 53.4625 53.6265 56.8801C53.6265 59.5896 53.6486 62.2992 53.6167 65.0087C53.602 66.3561 53.8421 67.6203 54.4252 68.8379C55.8338 71.7801 56.7672 74.867 57.1225 78.1179C57.169 78.5369 57.3258 78.799 57.7619 78.9827C64.1928 81.7143 70.6114 81.7119 77.035 78.9656C77.4294 78.7966 77.5984 78.5638 77.6425 78.1547C77.9978 74.8572 78.9557 71.7311 80.3839 68.7448C80.9352 67.5933 81.1605 66.3929 81.1483 65.1165C81.1213 62.1522 81.1336 59.1878 81.1434 56.2235C81.1483 54.3126 81.9666 52.8574 83.7182 52.0538C84.3674 51.7574 85.122 51.6961 85.8814 51.5149C85.8153 51.3385 85.7442 51.1253 85.6585 50.9195C84.6835 48.6191 83.6962 46.326 82.7407 44.0207C82.5129 43.4719 82.2507 42.8717 82.2679 42.3034C82.2948 41.294 82.5251 40.2896 82.6868 39.1724C73.0539 30.7082 59.0946 32.4941 51.8945 39.4174C52.6196 40.6644 52.7887 41.98 52.2962 43.347C52.0463 44.0428 51.7401 44.7189 51.4535 45.4C50.5911 47.4407 49.7263 49.479 48.8321 51.5908V51.5884ZM79.9454 84.7375C80.0459 84.7497 80.1341 84.7718 80.2198 84.7718C83.9019 84.7718 87.5841 84.7644 91.2662 84.7865C91.6974 84.7865 91.8126 84.5611 91.94 84.2475C93.2653 81.0431 94.6152 77.8485 95.9161 74.6342C97.6824 70.2686 98.0156 65.7878 96.411 61.3413C93.9856 54.6237 91.3814 47.9699 88.8433 41.294C88.3436 39.976 87.1382 39.4272 85.9574 39.927C84.8059 40.4121 84.4189 41.5733 84.9799 42.9036C86.3567 46.1619 87.7286 49.4227 89.1226 52.6736C89.6518 53.9059 89.9041 55.1774 89.8992 56.5175C89.887 61.0791 89.8943 65.6432 89.8943 70.2049V70.9766H87.393C87.393 70.685 87.393 70.4352 87.393 70.1828C87.393 65.5746 87.3881 60.964 87.3979 56.3558C87.3979 55.6184 87.2313 54.9667 86.6139 54.5233C86.0284 54.1019 85.367 54.026 84.708 54.3444C83.9656 54.7046 83.6423 55.3366 83.6423 56.1476C83.6423 59.1805 83.6276 62.2159 83.6472 65.2488C83.657 66.8045 83.3875 68.2866 82.6917 69.6831C80.3423 74.4113 79.6147 79.4409 79.943 84.7375H79.9454ZM54.8784 84.7742C54.8784 83.8531 54.8686 83.0422 54.8784 82.2313C54.9347 77.9489 54.0822 73.8601 52.2129 70.0015C51.4388 68.4042 51.0909 66.7432 51.1129 64.9695C51.1521 62.0738 51.1301 59.178 51.1203 56.2823C51.1154 54.93 50.2212 54.0603 49.0061 54.195C47.9992 54.3053 47.3769 55.1088 47.3745 56.3362C47.3696 60.9689 47.3745 65.6016 47.3745 70.2343C47.3745 70.4793 47.3745 70.7242 47.3745 70.9594H44.8731C44.8731 70.6508 44.8731 70.396 44.8731 70.1436C44.8731 65.7192 44.8903 61.2947 44.8633 56.8703C44.8535 55.2901 45.1475 53.8079 45.7796 52.3552C47.1687 49.1777 48.4965 45.9733 49.8537 42.7811C50.1869 41.9971 50.1869 41.2426 49.6406 40.5566C49.1408 39.927 48.4622 39.6575 47.6709 39.7727C46.7252 39.9123 46.1936 40.537 45.8653 41.4018C43.4865 47.671 41.093 53.9329 38.7117 60.2021C36.9748 64.7784 36.8547 69.3891 38.6186 73.9679C39.9661 77.4614 41.4678 80.8961 42.874 84.3675C43.0406 84.7742 43.2954 84.7767 43.6311 84.7742C47.1736 84.7693 50.7185 84.7718 54.261 84.7718C54.4399 84.7718 54.6187 84.7718 54.8735 84.7718L54.8784 84.7742ZM56.0788 94.7501V87.3319H41.1567V94.7501H56.0788ZM93.6157 87.327H78.696V94.7427H93.6157V87.327Z" fill="black"/>
<path d="M37.2246 44.3105C38.0062 44.607 38.7313 44.8838 39.5471 45.1925C39.307 45.8344 39.0792 46.4444 38.8244 47.123C38.0429 46.8266 37.3006 46.5424 36.4897 46.2361C36.7396 45.582 36.9723 44.9696 37.2246 44.3105Z" fill="black"/>
<path d="M56.0788 94.7502H41.1567V87.332H56.0788V94.7502Z" fill="#55B76B"/>
<path d="M93.6157 87.3271V94.7429H78.696V87.3271H93.6157Z" fill="#55B76B"/>
<path d="M67.113 67.4299V70.9014C66.329 70.97 65.5598 71.0361 64.6607 71.1145C64.6313 70.2791 64.5161 69.4756 64.597 68.6941C64.7195 67.5157 64.4353 66.8591 63.2079 66.3397C60.6674 65.2618 59.5307 62.9908 59.0603 60.3964C58.0559 54.8499 60.7825 50.3666 65.2266 47.8261C69.1586 45.5796 73.3504 45.6114 77.596 46.829C78.5735 47.1083 78.9214 47.9266 78.3799 48.7718C77.2579 50.5234 77.0252 52.4637 76.9296 54.4726C76.8341 56.479 76.8169 58.5173 76.4225 60.4723C75.5185 64.9678 72.2553 67.6553 67.5417 67.4275C67.429 67.4226 67.3139 67.4275 67.113 67.4275V67.4299ZM75.516 48.8183C74.8227 48.7228 74.2323 48.6101 73.637 48.5611C70.3762 48.2891 67.3825 48.9531 64.8273 51.1187C61.7037 53.767 60.5964 57.4369 61.8507 61.1558C62.3358 62.5964 63.1663 63.7698 64.7611 64.3235C65.1997 60.3866 66.138 56.6432 67.75 53.0198C68.5192 53.3604 69.2468 53.6813 70.0136 54.0218C68.5217 57.5349 67.5638 61.1044 67.2404 64.8747C68.6711 65.0046 69.9965 64.8674 71.219 64.1349C73.1397 62.9859 73.9285 61.1436 74.1711 59.0538C74.3499 57.5202 74.3573 55.9621 74.394 54.4138C74.4406 52.525 74.8007 50.7023 75.5111 48.8183H75.516Z" fill="#55B76B"/>
<path d="M76.6797 38.1342C76.3171 38.8789 75.9766 39.582 75.5895 40.3758C71.0328 38.2713 66.3511 37.9308 61.5273 39.413C61.3068 38.7491 61.1084 38.1635 60.9173 37.5756C60.8683 37.4261 60.8438 37.2693 60.7948 37.0464C66.2457 35.3511 71.5056 35.7308 76.6822 38.1317L76.6797 38.1342Z" fill="black"/>
<path d="M56.8211 41.7229C56.3434 41.0223 55.9024 40.3755 55.4124 39.6553C56.2944 39.1408 57.1396 38.6459 58.0656 38.1045C58.4503 38.8933 58.8006 39.6087 59.1632 40.351C58.3817 40.8091 57.632 41.2477 56.8211 41.7229Z" fill="black"/>
</g>
<defs>
<filter id="filter0_d_34_521" x="0" y="0" width="132" height="132" filterUnits="userSpaceOnUse" color-interpolation-filters="sRGB">
<feFlood flood-opacity="0" result="BackgroundImageFix"/>
<feColorMatrix in="SourceAlpha" type="matrix" values="0 0 0 0 0 0 0 0 0 0 0 0 0 0 0 0 0 0 127 0" result="hardAlpha"/>
<feMorphology radius="1" operator="dilate" in="SourceAlpha" result="effect1_dropShadow_34_521"/>
<feOffset/>
<feGaussianBlur stdDeviation="5"/>
<feComposite in2="hardAlpha" operator="out"/>
<feColorMatrix type="matrix" values="0 0 0 0 0.545098 0 0 0 0 0.823529 0 0 0 0 0.627451 0 0 0 0.4 0"/>
<feBlend mode="normal" in2="BackgroundImageFix" result="effect1_dropShadow_34_521"/>
<feBlend mode="normal" in="SourceGraphic" in2="effect1_dropShadow_34_521" result="shape"/>
</filter>
<clipPath id="clip0_34_521">
<rect width="71.1514" height="70" fill="white" transform="translate(30 31)"/>
</clipPath>
</defs>
</svg>
