<svg width="350" height="222" viewBox="0 0 350 222" fill="none" xmlns="http://www.w3.org/2000/svg">
<g opacity="0.5">
<rect width="350" height="221.13" rx="12" fill="url(#paint0_linear_141_104)"/>
</g>
<path d="M30.5256 82H26.571L32.5966 64.5455H37.3523L43.3693 82H39.4148L35.0426 68.5341H34.9062L30.5256 82ZM30.2784 75.1392H39.6193V78.0199H30.2784V75.1392ZM49.0327 64.5455V82H45.402V64.5455H49.0327ZM55.5717 64.5455V82H51.9411V64.5455H55.5717ZM70.9979 68.9091V71.6364H63.1143V68.9091H70.9979ZM64.9041 65.7727H68.5348V77.9773C68.5348 78.3125 68.5859 78.5739 68.6882 78.7614C68.7905 78.9432 68.9325 79.071 69.1143 79.1449C69.3018 79.2187 69.5178 79.2557 69.7621 79.2557C69.9325 79.2557 70.103 79.2415 70.2734 79.2131C70.4439 79.179 70.5746 79.1534 70.6655 79.1364L71.2365 81.8381C71.0547 81.8949 70.799 81.9602 70.4695 82.0341C70.1399 82.1136 69.7393 82.1619 69.2678 82.179C68.3928 82.2131 67.6257 82.0966 66.9666 81.8295C66.3132 81.5625 65.8047 81.1477 65.4411 80.5852C65.0774 80.0227 64.8984 79.3125 64.9041 78.4545V65.7727ZM73.3629 82V68.9091H76.9936V82H73.3629ZM75.1868 67.2216C74.647 67.2216 74.1839 67.0426 73.7976 66.6847C73.4169 66.321 73.2266 65.8864 73.2266 65.3807C73.2266 64.8807 73.4169 64.4517 73.7976 64.0938C74.1839 63.7301 74.647 63.5483 75.1868 63.5483C75.7266 63.5483 76.1868 63.7301 76.5675 64.0938C76.9538 64.4517 77.147 64.8807 77.147 65.3807C77.147 65.8864 76.9538 66.321 76.5675 66.6847C76.1868 67.0426 75.7266 67.2216 75.1868 67.2216ZM79.902 82V68.9091H83.3622V71.2188H83.5156C83.7884 70.4517 84.2429 69.8466 84.8793 69.4034C85.5156 68.9602 86.277 68.7386 87.1634 68.7386C88.0611 68.7386 88.8253 68.9631 89.456 69.4119C90.0866 69.8551 90.5071 70.4574 90.7173 71.2188H90.8537C91.1207 70.4688 91.6037 69.8693 92.3026 69.4205C93.0071 68.9659 93.8395 68.7386 94.7997 68.7386C96.0213 68.7386 97.0128 69.1278 97.7741 69.9062C98.5412 70.679 98.9247 71.7756 98.9247 73.196V82H95.3026V73.9119C95.3026 73.1847 95.1094 72.6392 94.723 72.2756C94.3366 71.9119 93.8537 71.7301 93.2741 71.7301C92.6151 71.7301 92.1009 71.9403 91.7315 72.3608C91.3622 72.7756 91.1776 73.3239 91.1776 74.0057V82H87.6577V73.8352C87.6577 73.1932 87.473 72.6818 87.1037 72.3011C86.7401 71.9205 86.2599 71.7301 85.6634 71.7301C85.2599 71.7301 84.8963 71.8324 84.5724 72.0369C84.2543 72.2358 84.0014 72.517 83.8139 72.8807C83.6264 73.2386 83.5327 73.6591 83.5327 74.142V82H79.902ZM107.759 82.2557C106.412 82.2557 105.253 81.983 104.281 81.4375C103.315 80.8864 102.571 80.108 102.048 79.1023C101.526 78.0909 101.264 76.8949 101.264 75.5142C101.264 74.1676 101.526 72.9858 102.048 71.9688C102.571 70.9517 103.307 70.1591 104.256 69.5909C105.21 69.0227 106.33 68.7386 107.614 68.7386C108.477 68.7386 109.281 68.8778 110.026 69.1562C110.776 69.429 111.429 69.8409 111.986 70.392C112.548 70.9432 112.986 71.6364 113.298 72.4716C113.611 73.3011 113.767 74.2727 113.767 75.3864V76.3835H102.713V74.1335H110.349C110.349 73.6108 110.236 73.1477 110.009 72.7443C109.781 72.3409 109.466 72.0256 109.062 71.7983C108.665 71.5653 108.202 71.4489 107.673 71.4489C107.122 71.4489 106.634 71.5767 106.207 71.8324C105.787 72.0824 105.457 72.4205 105.219 72.8466C104.98 73.267 104.858 73.7358 104.852 74.2528V76.392C104.852 77.0398 104.972 77.5994 105.21 78.071C105.455 78.5426 105.798 78.9062 106.241 79.1619C106.685 79.4176 107.21 79.5455 107.818 79.5455C108.222 79.5455 108.591 79.4886 108.926 79.375C109.261 79.2614 109.548 79.0909 109.787 78.8636C110.026 78.6364 110.207 78.358 110.332 78.0284L113.69 78.25C113.52 79.0568 113.17 79.7614 112.642 80.3636C112.119 80.9602 111.443 81.4261 110.614 81.7614C109.79 82.0909 108.838 82.2557 107.759 82.2557ZM128.731 68.9091V71.6364H120.651V68.9091H128.731ZM122.501 82V67.9631C122.501 67.0142 122.685 66.2273 123.055 65.6023C123.43 64.9773 123.941 64.5085 124.589 64.196C125.237 63.8835 125.972 63.7273 126.796 63.7273C127.353 63.7273 127.862 63.7699 128.322 63.8551C128.788 63.9403 129.134 64.017 129.362 64.0852L128.714 66.8125C128.572 66.767 128.396 66.7244 128.185 66.6847C127.981 66.6449 127.771 66.625 127.555 66.625C127.021 66.625 126.648 66.75 126.438 67C126.228 67.2443 126.123 67.5881 126.123 68.0312V82H122.501ZM134.213 82.2472C133.378 82.2472 132.634 82.1023 131.98 81.8125C131.327 81.517 130.81 81.0824 130.429 80.5085C130.054 79.929 129.866 79.2074 129.866 78.3438C129.866 77.6165 130 77.0057 130.267 76.5114C130.534 76.017 130.898 75.6193 131.358 75.3182C131.818 75.017 132.341 74.7898 132.926 74.6364C133.517 74.483 134.136 74.375 134.784 74.3125C135.545 74.233 136.159 74.1591 136.625 74.0909C137.091 74.017 137.429 73.9091 137.639 73.767C137.849 73.625 137.955 73.4148 137.955 73.1364V73.0852C137.955 72.5455 137.784 72.1278 137.443 71.8324C137.108 71.5369 136.631 71.3892 136.011 71.3892C135.358 71.3892 134.838 71.5341 134.452 71.8239C134.065 72.108 133.81 72.4659 133.685 72.8977L130.327 72.625C130.497 71.8295 130.832 71.142 131.332 70.5625C131.832 69.9773 132.477 69.5284 133.267 69.2159C134.063 68.8977 134.983 68.7386 136.028 68.7386C136.756 68.7386 137.452 68.8239 138.116 68.9943C138.787 69.1648 139.381 69.429 139.898 69.7869C140.42 70.1449 140.832 70.6051 141.134 71.1676C141.435 71.7244 141.585 72.392 141.585 73.1705V82H138.142V80.1847H138.04C137.83 80.5938 137.548 80.9545 137.196 81.267C136.844 81.5739 136.42 81.8153 135.926 81.9915C135.432 82.1619 134.861 82.2472 134.213 82.2472ZM135.253 79.7415C135.787 79.7415 136.259 79.6364 136.668 79.4261C137.077 79.2102 137.398 78.9205 137.631 78.5568C137.864 78.1932 137.98 77.7812 137.98 77.321V75.9318C137.866 76.0057 137.71 76.0739 137.511 76.1364C137.318 76.1932 137.099 76.2472 136.855 76.2983C136.611 76.3437 136.366 76.3864 136.122 76.4261C135.878 76.4602 135.656 76.4915 135.457 76.5199C135.031 76.5824 134.659 76.6818 134.341 76.8182C134.023 76.9545 133.776 77.1392 133.599 77.3722C133.423 77.5994 133.335 77.8835 133.335 78.2244C133.335 78.7188 133.514 79.0966 133.872 79.358C134.236 79.6136 134.696 79.7415 135.253 79.7415ZM156.138 68.9091L151.561 82H147.47L142.893 68.9091H146.729L149.447 78.2756H149.584L152.294 68.9091H156.138ZM163.489 82.2557C162.165 82.2557 161.02 81.9744 160.054 81.4119C159.094 80.8437 158.352 80.054 157.83 79.0426C157.307 78.0256 157.045 76.8466 157.045 75.5057C157.045 74.1534 157.307 72.9716 157.83 71.9602C158.352 70.9432 159.094 70.1534 160.054 69.5909C161.02 69.0227 162.165 68.7386 163.489 68.7386C164.812 68.7386 165.955 69.0227 166.915 69.5909C167.881 70.1534 168.625 70.9432 169.148 71.9602C169.67 72.9716 169.932 74.1534 169.932 75.5057C169.932 76.8466 169.67 78.0256 169.148 79.0426C168.625 80.054 167.881 80.8437 166.915 81.4119C165.955 81.9744 164.812 82.2557 163.489 82.2557ZM163.506 79.4432C164.108 79.4432 164.611 79.2727 165.014 78.9318C165.418 78.5852 165.722 78.1136 165.926 77.517C166.136 76.9205 166.241 76.2415 166.241 75.4801C166.241 74.7188 166.136 74.0398 165.926 73.4432C165.722 72.8466 165.418 72.375 165.014 72.0284C164.611 71.6818 164.108 71.5085 163.506 71.5085C162.898 71.5085 162.386 71.6818 161.972 72.0284C161.563 72.375 161.253 72.8466 161.043 73.4432C160.838 74.0398 160.736 74.7188 160.736 75.4801C160.736 76.2415 160.838 76.9205 161.043 77.517C161.253 78.1136 161.563 78.5852 161.972 78.9318C162.386 79.2727 162.898 79.4432 163.506 79.4432ZM180.688 76.4261V68.9091H184.318V82H180.832V79.6222H180.696C180.401 80.3892 179.909 81.0057 179.222 81.4716C178.54 81.9375 177.707 82.1705 176.724 82.1705C175.849 82.1705 175.08 81.9716 174.415 81.5739C173.75 81.1761 173.23 80.6108 172.855 79.8778C172.486 79.1449 172.298 78.267 172.293 77.2443V68.9091H175.923V76.5966C175.929 77.3693 176.136 77.9801 176.545 78.429C176.955 78.8778 177.503 79.1023 178.19 79.1023C178.628 79.1023 179.037 79.0028 179.418 78.804C179.798 78.5994 180.105 78.2983 180.338 77.9006C180.577 77.5028 180.693 77.0114 180.688 76.4261ZM187.222 82V68.9091H190.742V71.1932H190.879C191.117 70.3807 191.518 69.767 192.08 69.3523C192.643 68.9318 193.29 68.7216 194.023 68.7216C194.205 68.7216 194.401 68.733 194.612 68.7557C194.822 68.7784 195.006 68.8097 195.165 68.8494V72.071C194.995 72.0199 194.759 71.9744 194.458 71.9347C194.157 71.8949 193.881 71.875 193.631 71.875C193.097 71.875 192.62 71.9915 192.2 72.2244C191.785 72.4517 191.455 72.7699 191.211 73.179C190.972 73.5881 190.853 74.0597 190.853 74.5938V82H187.222ZM197.043 82V68.9091H200.673V82H197.043ZM198.866 67.2216C198.327 67.2216 197.864 67.0426 197.477 66.6847C197.097 66.321 196.906 65.8864 196.906 65.3807C196.906 64.8807 197.097 64.4517 197.477 64.0938C197.864 63.7301 198.327 63.5483 198.866 63.5483C199.406 63.5483 199.866 63.7301 200.247 64.0938C200.634 64.4517 200.827 64.8807 200.827 65.3807C200.827 65.8864 200.634 66.321 200.247 66.6847C199.866 67.0426 199.406 67.2216 198.866 67.2216ZM210.545 68.9091V71.6364H202.661V68.9091H210.545ZM204.451 65.7727H208.082V77.9773C208.082 78.3125 208.133 78.5739 208.235 78.7614C208.337 78.9432 208.479 79.071 208.661 79.1449C208.849 79.2187 209.065 79.2557 209.309 79.2557C209.479 79.2557 209.65 79.2415 209.82 79.2131C209.991 79.179 210.121 79.1534 210.212 79.1364L210.783 81.8381C210.602 81.8949 210.346 81.9602 210.016 82.0341C209.687 82.1136 209.286 82.1619 208.815 82.179C207.94 82.2131 207.173 82.0966 206.513 81.8295C205.86 81.5625 205.352 81.1477 204.988 80.5852C204.624 80.0227 204.445 79.3125 204.451 78.4545V65.7727ZM218.735 82.2557C217.388 82.2557 216.229 81.983 215.258 81.4375C214.292 80.8864 213.548 80.108 213.025 79.1023C212.502 78.0909 212.241 76.8949 212.241 75.5142C212.241 74.1676 212.502 72.9858 213.025 71.9688C213.548 70.9517 214.283 70.1591 215.232 69.5909C216.187 69.0227 217.306 68.7386 218.59 68.7386C219.454 68.7386 220.258 68.8778 221.002 69.1562C221.752 69.429 222.406 69.8409 222.962 70.392C223.525 70.9432 223.962 71.6364 224.275 72.4716C224.587 73.3011 224.744 74.2727 224.744 75.3864V76.3835H213.69V74.1335H221.326C221.326 73.6108 221.212 73.1477 220.985 72.7443C220.758 72.3409 220.442 72.0256 220.039 71.7983C219.641 71.5653 219.178 71.4489 218.65 71.4489C218.099 71.4489 217.61 71.5767 217.184 71.8324C216.763 72.0824 216.434 72.4205 216.195 72.8466C215.957 73.267 215.835 73.7358 215.829 74.2528V76.392C215.829 77.0398 215.948 77.5994 216.187 78.071C216.431 78.5426 216.775 78.9062 217.218 79.1619C217.661 79.4176 218.187 79.5455 218.795 79.5455C219.198 79.5455 219.567 79.4886 219.903 79.375C220.238 79.2614 220.525 79.0909 220.763 78.8636C221.002 78.6364 221.184 78.358 221.309 78.0284L224.667 78.25C224.496 79.0568 224.147 79.7614 223.619 80.3636C223.096 80.9602 222.42 81.4261 221.59 81.7614C220.766 82.0909 219.815 82.2557 218.735 82.2557ZM31.1818 107.247C30.3466 107.247 29.6023 107.102 28.9489 106.812C28.2955 106.517 27.7784 106.082 27.3977 105.509C27.0227 104.929 26.8352 104.207 26.8352 103.344C26.8352 102.616 26.9688 102.006 27.2358 101.511C27.5028 101.017 27.8665 100.619 28.3267 100.318C28.7869 100.017 29.3097 99.7898 29.8949 99.6364C30.4858 99.483 31.1051 99.375 31.7528 99.3125C32.5142 99.233 33.1278 99.1591 33.5938 99.0909C34.0597 99.017 34.3977 98.9091 34.608 98.767C34.8182 98.625 34.9233 98.4148 34.9233 98.1364V98.0852C34.9233 97.5455 34.7528 97.1278 34.4119 96.8324C34.0767 96.5369 33.5994 96.3892 32.9801 96.3892C32.3267 96.3892 31.8068 96.5341 31.4205 96.8239C31.0341 97.108 30.7784 97.4659 30.6534 97.8977L27.2955 97.625C27.4659 96.8295 27.8011 96.142 28.3011 95.5625C28.8011 94.9773 29.446 94.5284 30.2358 94.2159C31.0313 93.8977 31.9517 93.7386 32.9972 93.7386C33.7244 93.7386 34.4205 93.8239 35.0852 93.9943C35.7557 94.1648 36.3494 94.429 36.8665 94.7869C37.3892 95.1449 37.8011 95.6051 38.1023 96.1676C38.4034 96.7244 38.554 97.392 38.554 98.1705V107H35.1108V105.185H35.0085C34.7983 105.594 34.517 105.955 34.1648 106.267C33.8125 106.574 33.3892 106.815 32.8949 106.991C32.4006 107.162 31.8295 107.247 31.1818 107.247ZM32.2216 104.741C32.7557 104.741 33.2273 104.636 33.6364 104.426C34.0455 104.21 34.3665 103.92 34.5994 103.557C34.8324 103.193 34.9489 102.781 34.9489 102.321V100.932C34.8352 101.006 34.679 101.074 34.4801 101.136C34.2869 101.193 34.0682 101.247 33.8239 101.298C33.5795 101.344 33.3352 101.386 33.0909 101.426C32.8466 101.46 32.625 101.491 32.4261 101.52C32 101.582 31.6278 101.682 31.3097 101.818C30.9915 101.955 30.7443 102.139 30.5682 102.372C30.392 102.599 30.304 102.884 30.304 103.224C30.304 103.719 30.483 104.097 30.8409 104.358C31.2045 104.614 31.6648 104.741 32.2216 104.741ZM47.2855 107.256C45.9446 107.256 44.7912 106.972 43.8253 106.403C42.8651 105.83 42.1264 105.034 41.6094 104.017C41.098 103 40.8423 101.83 40.8423 100.506C40.8423 99.1648 41.1009 97.9886 41.6179 96.9773C42.1406 95.9602 42.8821 95.1676 43.8423 94.5994C44.8026 94.0256 45.9446 93.7386 47.2685 93.7386C48.4105 93.7386 49.4105 93.946 50.2685 94.3608C51.1264 94.7756 51.8054 95.358 52.3054 96.108C52.8054 96.858 53.081 97.7386 53.1321 98.75H49.706C49.6094 98.0966 49.3537 97.571 48.9389 97.1733C48.5298 96.7699 47.9929 96.5682 47.3281 96.5682C46.7656 96.5682 46.2741 96.7216 45.8537 97.0284C45.4389 97.3295 45.1151 97.7699 44.8821 98.3494C44.6491 98.929 44.5327 99.6307 44.5327 100.455C44.5327 101.29 44.6463 102 44.8736 102.585C45.1065 103.17 45.4332 103.616 45.8537 103.923C46.2741 104.23 46.7656 104.384 47.3281 104.384C47.7429 104.384 48.1151 104.298 48.4446 104.128C48.7798 103.957 49.0554 103.71 49.2713 103.386C49.4929 103.057 49.6378 102.662 49.706 102.202H53.1321C53.0753 103.202 52.8026 104.082 52.3139 104.844C51.831 105.599 51.1634 106.19 50.3111 106.616C49.4588 107.043 48.4503 107.256 47.2855 107.256ZM62.4197 93.9091V96.6364H54.5362V93.9091H62.4197ZM56.326 90.7727H59.9567V102.977C59.9567 103.312 60.0078 103.574 60.1101 103.761C60.2124 103.943 60.3544 104.071 60.5362 104.145C60.7237 104.219 60.9396 104.256 61.1839 104.256C61.3544 104.256 61.5249 104.241 61.6953 104.213C61.8658 104.179 61.9964 104.153 62.0874 104.136L62.6584 106.838C62.4766 106.895 62.2209 106.96 61.8913 107.034C61.5618 107.114 61.1612 107.162 60.6896 107.179C59.8146 107.213 59.0476 107.097 58.3885 106.83C57.7351 106.562 57.2266 106.148 56.8629 105.585C56.4993 105.023 56.3203 104.312 56.326 103.455V90.7727ZM64.7848 107V93.9091H68.4155V107H64.7848ZM66.6087 92.2216C66.0689 92.2216 65.6058 92.0426 65.2195 91.6847C64.8388 91.321 64.6484 90.8864 64.6484 90.3807C64.6484 89.8807 64.8388 89.4517 65.2195 89.0938C65.6058 88.7301 66.0689 88.5483 66.6087 88.5483C67.1484 88.5483 67.6087 88.7301 67.9893 89.0938C68.3757 89.4517 68.5689 89.8807 68.5689 90.3807C68.5689 90.8864 68.3757 91.321 67.9893 91.6847C67.6087 92.0426 67.1484 92.2216 66.6087 92.2216ZM83.5284 93.9091L78.9517 107H74.8608L70.2841 93.9091H74.1193L76.8381 103.276H76.9744L79.6847 93.9091H83.5284ZM85.3864 107V93.9091H89.017V107H85.3864ZM87.2102 92.2216C86.6705 92.2216 86.2074 92.0426 85.821 91.6847C85.4403 91.321 85.25 90.8864 85.25 90.3807C85.25 89.8807 85.4403 89.4517 85.821 89.0938C86.2074 88.7301 86.6705 88.5483 87.2102 88.5483C87.75 88.5483 88.2102 88.7301 88.5909 89.0938C88.9773 89.4517 89.1705 89.8807 89.1705 90.3807C89.1705 90.8864 88.9773 91.321 88.5909 91.6847C88.2102 92.0426 87.75 92.2216 87.2102 92.2216ZM98.8885 93.9091V96.6364H91.005V93.9091H98.8885ZM92.7947 90.7727H96.4254V102.977C96.4254 103.312 96.4766 103.574 96.5788 103.761C96.6811 103.943 96.8232 104.071 97.005 104.145C97.1925 104.219 97.4084 104.256 97.6527 104.256C97.8232 104.256 97.9936 104.241 98.1641 104.213C98.3345 104.179 98.4652 104.153 98.5561 104.136L99.1271 106.838C98.9453 106.895 98.6896 106.96 98.3601 107.034C98.0305 107.114 97.63 107.162 97.1584 107.179C96.2834 107.213 95.5163 107.097 94.8572 106.83C94.2038 106.562 93.6953 106.148 93.3317 105.585C92.968 105.023 92.7891 104.312 92.7947 103.455V90.7727ZM101.254 107V93.9091H104.884V107H101.254ZM103.077 92.2216C102.538 92.2216 102.075 92.0426 101.688 91.6847C101.308 91.321 101.117 90.8864 101.117 90.3807C101.117 89.8807 101.308 89.4517 101.688 89.0938C102.075 88.7301 102.538 88.5483 103.077 88.5483C103.617 88.5483 104.077 88.7301 104.458 89.0938C104.844 89.4517 105.038 89.8807 105.038 90.3807C105.038 90.8864 104.844 91.321 104.458 91.6847C104.077 92.0426 103.617 92.2216 103.077 92.2216ZM113.759 107.256C112.412 107.256 111.253 106.983 110.281 106.438C109.315 105.886 108.571 105.108 108.048 104.102C107.526 103.091 107.264 101.895 107.264 100.514C107.264 99.1676 107.526 97.9858 108.048 96.9688C108.571 95.9517 109.307 95.1591 110.256 94.5909C111.21 94.0227 112.33 93.7386 113.614 93.7386C114.477 93.7386 115.281 93.8778 116.026 94.1562C116.776 94.429 117.429 94.8409 117.986 95.392C118.548 95.9432 118.986 96.6364 119.298 97.4716C119.611 98.3011 119.767 99.2727 119.767 100.386V101.384H108.713V99.1335H116.349C116.349 98.6108 116.236 98.1477 116.009 97.7443C115.781 97.3409 115.466 97.0256 115.062 96.7983C114.665 96.5653 114.202 96.4489 113.673 96.4489C113.122 96.4489 112.634 96.5767 112.207 96.8324C111.787 97.0824 111.457 97.4205 111.219 97.8466C110.98 98.267 110.858 98.7358 110.852 99.2528V101.392C110.852 102.04 110.972 102.599 111.21 103.071C111.455 103.543 111.798 103.906 112.241 104.162C112.685 104.418 113.21 104.545 113.818 104.545C114.222 104.545 114.591 104.489 114.926 104.375C115.261 104.261 115.548 104.091 115.787 103.864C116.026 103.636 116.207 103.358 116.332 103.028L119.69 103.25C119.52 104.057 119.17 104.761 118.642 105.364C118.119 105.96 117.443 106.426 116.614 106.761C115.79 107.091 114.838 107.256 113.759 107.256ZM133.028 97.642L129.705 97.8466C129.648 97.5625 129.526 97.3068 129.338 97.0795C129.151 96.8466 128.903 96.6619 128.597 96.5256C128.295 96.3835 127.935 96.3125 127.514 96.3125C126.952 96.3125 126.477 96.4318 126.091 96.6705C125.705 96.9034 125.511 97.2159 125.511 97.608C125.511 97.9205 125.636 98.1847 125.886 98.4006C126.136 98.6165 126.565 98.7898 127.173 98.9205L129.543 99.3977C130.815 99.6591 131.764 100.08 132.389 100.659C133.014 101.239 133.327 102 133.327 102.943C133.327 103.801 133.074 104.554 132.568 105.202C132.068 105.849 131.381 106.355 130.506 106.719C129.636 107.077 128.634 107.256 127.497 107.256C125.764 107.256 124.384 106.895 123.355 106.173C122.332 105.446 121.733 104.457 121.557 103.207L125.128 103.02C125.236 103.548 125.497 103.952 125.912 104.23C126.327 104.503 126.858 104.639 127.506 104.639C128.142 104.639 128.653 104.517 129.04 104.273C129.432 104.023 129.631 103.702 129.636 103.31C129.631 102.98 129.491 102.71 129.219 102.5C128.946 102.284 128.526 102.119 127.957 102.006L125.69 101.554C124.412 101.298 123.46 100.855 122.835 100.224C122.216 99.5937 121.906 98.7898 121.906 97.8125C121.906 96.9716 122.134 96.2472 122.588 95.6392C123.048 95.0312 123.693 94.5625 124.523 94.233C125.358 93.9034 126.335 93.7386 127.455 93.7386C129.108 93.7386 130.409 94.0881 131.358 94.7869C132.313 95.4858 132.869 96.4375 133.028 97.642ZM141.168 107V93.9091H144.798V107H141.168ZM142.991 92.2216C142.452 92.2216 141.989 92.0426 141.602 91.6847C141.222 91.321 141.031 90.8864 141.031 90.3807C141.031 89.8807 141.222 89.4517 141.602 89.0938C141.989 88.7301 142.452 88.5483 142.991 88.5483C143.531 88.5483 143.991 88.7301 144.372 89.0938C144.759 89.4517 144.952 89.8807 144.952 90.3807C144.952 90.8864 144.759 91.321 144.372 91.6847C143.991 92.0426 143.531 92.2216 142.991 92.2216ZM151.337 99.4318V107H147.707V93.9091H151.167V96.2188H151.32C151.61 95.4574 152.096 94.8551 152.778 94.4119C153.46 93.9631 154.286 93.7386 155.258 93.7386C156.167 93.7386 156.96 93.9375 157.636 94.3352C158.312 94.733 158.837 95.3011 159.212 96.0398C159.587 96.7727 159.775 97.6477 159.775 98.6648V107H156.144V99.3125C156.15 98.5114 155.945 97.8864 155.531 97.4375C155.116 96.983 154.545 96.7557 153.817 96.7557C153.329 96.7557 152.897 96.8608 152.522 97.071C152.153 97.2812 151.863 97.5881 151.653 97.9915C151.448 98.3892 151.343 98.8693 151.337 99.4318ZM182.859 89.5455V107H179.671L172.077 96.0142H171.95V107H168.259V89.5455H171.498L179.032 100.523H179.185V89.5455H182.859ZM191.737 112.182C190.561 112.182 189.553 112.02 188.712 111.696C187.876 111.378 187.212 110.943 186.717 110.392C186.223 109.841 185.902 109.222 185.754 108.534L189.112 108.082C189.214 108.344 189.376 108.588 189.598 108.815C189.82 109.043 190.112 109.224 190.476 109.361C190.845 109.503 191.294 109.574 191.822 109.574C192.612 109.574 193.263 109.381 193.774 108.994C194.291 108.614 194.55 107.974 194.55 107.077V104.682H194.396C194.237 105.045 193.999 105.389 193.68 105.713C193.362 106.037 192.953 106.301 192.453 106.506C191.953 106.71 191.357 106.812 190.663 106.812C189.68 106.812 188.786 106.585 187.979 106.131C187.178 105.67 186.538 104.969 186.061 104.026C185.589 103.077 185.354 101.878 185.354 100.429C185.354 98.946 185.595 97.7074 186.078 96.7131C186.561 95.7187 187.203 94.9744 188.004 94.4801C188.811 93.9858 189.695 93.7386 190.655 93.7386C191.388 93.7386 192.001 93.8636 192.496 94.1136C192.99 94.358 193.388 94.6648 193.689 95.0341C193.996 95.3977 194.232 95.7557 194.396 96.108H194.533V93.9091H198.138V107.128C198.138 108.241 197.865 109.173 197.32 109.923C196.774 110.673 196.018 111.236 195.053 111.611C194.092 111.991 192.987 112.182 191.737 112.182ZM191.814 104.085C192.399 104.085 192.893 103.94 193.297 103.651C193.706 103.355 194.018 102.935 194.234 102.389C194.456 101.838 194.567 101.179 194.567 100.412C194.567 99.6449 194.459 98.9801 194.243 98.4176C194.027 97.8494 193.714 97.4091 193.305 97.0966C192.896 96.7841 192.399 96.6278 191.814 96.6278C191.217 96.6278 190.714 96.7898 190.305 97.1136C189.896 97.4318 189.587 97.875 189.376 98.4432C189.166 99.0114 189.061 99.6676 189.061 100.412C189.061 101.168 189.166 101.821 189.376 102.372C189.592 102.918 189.902 103.341 190.305 103.642C190.714 103.937 191.217 104.085 191.814 104.085ZM203.609 107L200.047 93.9091H203.72L205.749 102.705H205.868L207.982 93.9091H211.587L213.734 102.653H213.845L215.839 93.9091H219.504L215.95 107H212.107L209.857 98.767H209.695L207.445 107H203.609ZM227.079 107.256C225.732 107.256 224.573 106.983 223.602 106.438C222.636 105.886 221.891 105.108 221.369 104.102C220.846 103.091 220.585 101.895 220.585 100.514C220.585 99.1676 220.846 97.9858 221.369 96.9688C221.891 95.9517 222.627 95.1591 223.576 94.5909C224.531 94.0227 225.65 93.7386 226.934 93.7386C227.798 93.7386 228.602 93.8778 229.346 94.1562C230.096 94.429 230.749 94.8409 231.306 95.392C231.869 95.9432 232.306 96.6364 232.619 97.4716C232.931 98.3011 233.087 99.2727 233.087 100.386V101.384H222.033V99.1335H229.67C229.67 98.6108 229.556 98.1477 229.329 97.7443C229.102 97.3409 228.786 97.0256 228.383 96.7983C227.985 96.5653 227.522 96.4489 226.994 96.4489C226.442 96.4489 225.954 96.5767 225.528 96.8324C225.107 97.0824 224.778 97.4205 224.539 97.8466C224.3 98.267 224.178 98.7358 224.173 99.2528V101.392C224.173 102.04 224.292 102.599 224.531 103.071C224.775 103.543 225.119 103.906 225.562 104.162C226.005 104.418 226.531 104.545 227.138 104.545C227.542 104.545 227.911 104.489 228.246 104.375C228.582 104.261 228.869 104.091 229.107 103.864C229.346 103.636 229.528 103.358 229.653 103.028L233.011 103.25C232.84 104.057 232.491 104.761 231.962 105.364C231.44 105.96 230.763 106.426 229.934 106.761C229.11 107.091 228.158 107.256 227.079 107.256ZM244.994 94.5653C244.925 93.8778 244.633 93.3437 244.116 92.9631C243.599 92.5824 242.897 92.392 242.011 92.392C241.408 92.392 240.9 92.4773 240.485 92.6477C240.07 92.8125 239.752 93.0426 239.531 93.3381C239.315 93.6335 239.207 93.9688 239.207 94.3438C239.195 94.6562 239.261 94.929 239.403 95.1619C239.55 95.3949 239.752 95.5966 240.008 95.767C240.263 95.9318 240.559 96.0767 240.894 96.2017C241.229 96.321 241.587 96.4233 241.968 96.5085L243.536 96.8835C244.298 97.054 244.996 97.2812 245.633 97.5653C246.269 97.8494 246.82 98.1989 247.286 98.6136C247.752 99.0284 248.113 99.517 248.369 100.08C248.63 100.642 248.763 101.287 248.769 102.014C248.763 103.082 248.491 104.009 247.951 104.793C247.417 105.571 246.644 106.176 245.633 106.608C244.627 107.034 243.414 107.247 241.994 107.247C240.585 107.247 239.357 107.031 238.312 106.599C237.272 106.168 236.46 105.528 235.874 104.682C235.295 103.83 234.991 102.776 234.962 101.52H238.533C238.573 102.105 238.741 102.594 239.036 102.986C239.337 103.372 239.738 103.665 240.238 103.864C240.744 104.057 241.315 104.153 241.951 104.153C242.576 104.153 243.119 104.062 243.579 103.881C244.045 103.699 244.406 103.446 244.661 103.122C244.917 102.798 245.045 102.426 245.045 102.006C245.045 101.614 244.928 101.284 244.695 101.017C244.468 100.75 244.133 100.523 243.69 100.335C243.252 100.148 242.715 99.9773 242.079 99.8239L240.178 99.3466C238.707 98.9886 237.545 98.429 236.692 97.6676C235.84 96.9062 235.417 95.8807 235.423 94.5909C235.417 93.5341 235.698 92.6108 236.266 91.821C236.84 91.0312 237.627 90.4148 238.627 89.9716C239.627 89.5284 240.763 89.3068 242.036 89.3068C243.332 89.3068 244.462 89.5284 245.428 89.9716C246.4 90.4148 247.156 91.0312 247.695 91.821C248.235 92.6108 248.513 93.5256 248.531 94.5653H244.994ZM254.916 107.247C254.081 107.247 253.337 107.102 252.683 106.812C252.03 106.517 251.513 106.082 251.132 105.509C250.757 104.929 250.57 104.207 250.57 103.344C250.57 102.616 250.703 102.006 250.97 101.511C251.237 101.017 251.601 100.619 252.061 100.318C252.521 100.017 253.044 99.7898 253.629 99.6364C254.22 99.483 254.839 99.375 255.487 99.3125C256.249 99.233 256.862 99.1591 257.328 99.0909C257.794 99.017 258.132 98.9091 258.342 98.767C258.553 98.625 258.658 98.4148 258.658 98.1364V98.0852C258.658 97.5455 258.487 97.1278 258.146 96.8324C257.811 96.5369 257.334 96.3892 256.714 96.3892C256.061 96.3892 255.541 96.5341 255.155 96.8239C254.768 97.108 254.513 97.4659 254.388 97.8977L251.03 97.625C251.2 96.8295 251.536 96.142 252.036 95.5625C252.536 94.9773 253.18 94.5284 253.97 94.2159C254.766 93.8977 255.686 93.7386 256.732 93.7386C257.459 93.7386 258.155 93.8239 258.82 93.9943C259.49 94.1648 260.084 94.429 260.601 94.7869C261.124 95.1449 261.536 95.6051 261.837 96.1676C262.138 96.7244 262.288 97.392 262.288 98.1705V107H258.845V105.185H258.743C258.533 105.594 258.251 105.955 257.899 106.267C257.547 106.574 257.124 106.815 256.629 106.991C256.135 107.162 255.564 107.247 254.916 107.247ZM255.956 104.741C256.49 104.741 256.962 104.636 257.371 104.426C257.78 104.21 258.101 103.92 258.334 103.557C258.567 103.193 258.683 102.781 258.683 102.321V100.932C258.57 101.006 258.413 101.074 258.214 101.136C258.021 101.193 257.803 101.247 257.558 101.298C257.314 101.344 257.07 101.386 256.825 101.426C256.581 101.46 256.359 101.491 256.161 101.52C255.734 101.582 255.362 101.682 255.044 101.818C254.726 101.955 254.479 102.139 254.303 102.372C254.126 102.599 254.038 102.884 254.038 103.224C254.038 103.719 254.217 104.097 254.575 104.358C254.939 104.614 255.399 104.741 255.956 104.741ZM273.5 101.426V93.9091H277.131V107H273.645V104.622H273.509C273.213 105.389 272.722 106.006 272.034 106.472C271.352 106.937 270.52 107.17 269.537 107.17C268.662 107.17 267.892 106.972 267.227 106.574C266.563 106.176 266.043 105.611 265.668 104.878C265.298 104.145 265.111 103.267 265.105 102.244V93.9091H268.736V101.597C268.741 102.369 268.949 102.98 269.358 103.429C269.767 103.878 270.315 104.102 271.003 104.102C271.44 104.102 271.849 104.003 272.23 103.804C272.611 103.599 272.918 103.298 273.151 102.901C273.389 102.503 273.506 102.011 273.5 101.426ZM283.665 99.4318V107H280.035V93.9091H283.495V96.2188H283.648C283.938 95.4574 284.424 94.8551 285.106 94.4119C285.788 93.9631 286.614 93.7386 287.586 93.7386C288.495 93.7386 289.288 93.9375 289.964 94.3352C290.64 94.733 291.165 95.3011 291.54 96.0398C291.915 96.7727 292.103 97.6477 292.103 98.6648V107H288.472V99.3125C288.478 98.5114 288.273 97.8864 287.859 97.4375C287.444 96.983 286.873 96.7557 286.146 96.7557C285.657 96.7557 285.225 96.8608 284.85 97.071C284.481 97.2812 284.191 97.5881 283.981 97.9915C283.776 98.3892 283.671 98.8693 283.665 99.4318ZM300.862 112.182C299.686 112.182 298.678 112.02 297.837 111.696C297.001 111.378 296.337 110.943 295.842 110.392C295.348 109.841 295.027 109.222 294.879 108.534L298.237 108.082C298.339 108.344 298.501 108.588 298.723 108.815C298.945 109.043 299.237 109.224 299.601 109.361C299.97 109.503 300.419 109.574 300.947 109.574C301.737 109.574 302.388 109.381 302.899 108.994C303.416 108.614 303.675 107.974 303.675 107.077V104.682H303.521C303.362 105.045 303.124 105.389 302.805 105.713C302.487 106.037 302.078 106.301 301.578 106.506C301.078 106.71 300.482 106.812 299.788 106.812C298.805 106.812 297.911 106.585 297.104 106.131C296.303 105.67 295.663 104.969 295.186 104.026C294.714 103.077 294.479 101.878 294.479 100.429C294.479 98.946 294.72 97.7074 295.203 96.7131C295.686 95.7187 296.328 94.9744 297.129 94.4801C297.936 93.9858 298.82 93.7386 299.78 93.7386C300.513 93.7386 301.126 93.8636 301.621 94.1136C302.115 94.358 302.513 94.6648 302.814 95.0341C303.121 95.3977 303.357 95.7557 303.521 96.108H303.658V93.9091H307.263V107.128C307.263 108.241 306.99 109.173 306.445 109.923C305.899 110.673 305.143 111.236 304.178 111.611C303.217 111.991 302.112 112.182 300.862 112.182ZM300.939 104.085C301.524 104.085 302.018 103.94 302.422 103.651C302.831 103.355 303.143 102.935 303.359 102.389C303.581 101.838 303.692 101.179 303.692 100.412C303.692 99.6449 303.584 98.9801 303.368 98.4176C303.152 97.8494 302.839 97.4091 302.43 97.0966C302.021 96.7841 301.524 96.6278 300.939 96.6278C300.342 96.6278 299.839 96.7898 299.43 97.1136C299.021 97.4318 298.712 97.875 298.501 98.4432C298.291 99.0114 298.186 99.6676 298.186 100.412C298.186 101.168 298.291 101.821 298.501 102.372C298.717 102.918 299.027 103.341 299.43 103.642C299.839 103.937 300.342 104.085 300.939 104.085Z" fill="white"/>
<path d="M29.75 42H27.0568V33.2727H29.8693C30.7159 33.2727 31.4403 33.4474 32.0426 33.7969C32.6449 34.1435 33.1065 34.642 33.4276 35.2926C33.7486 35.9403 33.9091 36.7159 33.9091 37.6193C33.9091 38.5284 33.7472 39.3111 33.4233 39.9673C33.0994 40.6207 32.6278 41.1236 32.0085 41.4759C31.3892 41.8253 30.6364 42 29.75 42ZM28.1136 41.0625H29.6818C30.4034 41.0625 31.0014 40.9233 31.4759 40.6449C31.9503 40.3665 32.304 39.9702 32.5369 39.456C32.7699 38.9418 32.8864 38.3295 32.8864 37.6193C32.8864 36.9148 32.7713 36.3082 32.5412 35.7997C32.3111 35.2884 31.9673 34.8963 31.5099 34.6236C31.0526 34.348 30.483 34.2102 29.8011 34.2102H28.1136V41.0625ZM38.2045 42.1364C37.6136 42.1364 37.0952 41.9957 36.6491 41.7145C36.206 41.4332 35.8594 41.0398 35.6094 40.5341C35.3622 40.0284 35.2386 39.4375 35.2386 38.7614C35.2386 38.0795 35.3622 37.4844 35.6094 36.9759C35.8594 36.4673 36.206 36.0724 36.6491 35.7912C37.0952 35.5099 37.6136 35.3693 38.2045 35.3693C38.7955 35.3693 39.3125 35.5099 39.7557 35.7912C40.2017 36.0724 40.5483 36.4673 40.7955 36.9759C41.0455 37.4844 41.1705 38.0795 41.1705 38.7614C41.1705 39.4375 41.0455 40.0284 40.7955 40.5341C40.5483 41.0398 40.2017 41.4332 39.7557 41.7145C39.3125 41.9957 38.7955 42.1364 38.2045 42.1364ZM38.2045 41.233C38.6534 41.233 39.0227 41.1179 39.3125 40.8878C39.6023 40.6577 39.8168 40.3551 39.956 39.9801C40.0952 39.6051 40.1648 39.1989 40.1648 38.7614C40.1648 38.3239 40.0952 37.9162 39.956 37.5384C39.8168 37.1605 39.6023 36.8551 39.3125 36.6222C39.0227 36.3892 38.6534 36.2727 38.2045 36.2727C37.7557 36.2727 37.3864 36.3892 37.0966 36.6222C36.8068 36.8551 36.5923 37.1605 36.4531 37.5384C36.3139 37.9162 36.2443 38.3239 36.2443 38.7614C36.2443 39.1989 36.3139 39.6051 36.4531 39.9801C36.5923 40.3551 36.8068 40.6577 37.0966 40.8878C37.3864 41.1179 37.7557 41.233 38.2045 41.233ZM43.7113 38.0625V42H42.7056V35.4545H43.6772V36.4773H43.7624C43.9158 36.1449 44.1488 35.8778 44.4613 35.6761C44.7738 35.4716 45.1772 35.3693 45.6715 35.3693C46.1147 35.3693 46.5025 35.4602 46.8349 35.642C47.1673 35.821 47.4258 36.0938 47.6104 36.4602C47.7951 36.8239 47.8874 37.2841 47.8874 37.8409V42H46.8817V37.9091C46.8817 37.3949 46.7482 36.9943 46.4812 36.7074C46.2141 36.4176 45.8477 36.2727 45.3817 36.2727C45.0607 36.2727 44.7738 36.3423 44.521 36.4815C44.271 36.6207 44.0735 36.8239 43.9286 37.0909C43.7837 37.358 43.7113 37.6818 43.7113 38.0625ZM50.5945 33.2727V36.2727H49.657V33.2727H50.5945ZM55.2319 35.4545V36.3068H51.8398V35.4545H55.2319ZM52.8285 33.8864H53.8342V40.125C53.8342 40.4091 53.8754 40.6222 53.9577 40.7642C54.043 40.9034 54.1509 40.9972 54.2816 41.0455C54.4151 41.0909 54.5558 41.1136 54.7035 41.1136C54.8143 41.1136 54.9052 41.108 54.9762 41.0966C55.0472 41.0824 55.104 41.071 55.1467 41.0625L55.3512 41.9659C55.283 41.9915 55.1879 42.017 55.0657 42.0426C54.9435 42.071 54.7887 42.0852 54.6012 42.0852C54.3171 42.0852 54.0387 42.0241 53.766 41.902C53.4961 41.7798 53.2717 41.5938 53.0927 41.3438C52.9165 41.0938 52.8285 40.7784 52.8285 40.3977V33.8864ZM63.0344 35.4545V36.3068H59.506V35.4545H63.0344ZM60.5629 42V34.5511C60.5629 34.1761 60.6509 33.8636 60.8271 33.6136C61.0032 33.3636 61.2319 33.1761 61.5131 33.0511C61.7944 32.9261 62.0913 32.8636 62.4038 32.8636C62.6509 32.8636 62.8526 32.8835 63.0089 32.9233C63.1651 32.9631 63.2816 33 63.3583 33.0341L63.0685 33.9034C63.0174 33.8864 62.9464 33.8651 62.8555 33.8395C62.7674 33.8139 62.6509 33.8011 62.506 33.8011C62.1737 33.8011 61.9336 33.8849 61.7859 34.0526C61.641 34.2202 61.5685 34.4659 61.5685 34.7898V42H60.5629ZM66.8335 42.1364C66.2425 42.1364 65.7241 41.9957 65.2781 41.7145C64.8349 41.4332 64.4883 41.0398 64.2383 40.5341C63.9911 40.0284 63.8675 39.4375 63.8675 38.7614C63.8675 38.0795 63.9911 37.4844 64.2383 36.9759C64.4883 36.4673 64.8349 36.0724 65.2781 35.7912C65.7241 35.5099 66.2425 35.3693 66.8335 35.3693C67.4244 35.3693 67.9414 35.5099 68.3846 35.7912C68.8306 36.0724 69.1772 36.4673 69.4244 36.9759C69.6744 37.4844 69.7994 38.0795 69.7994 38.7614C69.7994 39.4375 69.6744 40.0284 69.4244 40.5341C69.1772 41.0398 68.8306 41.4332 68.3846 41.7145C67.9414 41.9957 67.4244 42.1364 66.8335 42.1364ZM66.8335 41.233C67.2823 41.233 67.6516 41.1179 67.9414 40.8878C68.2312 40.6577 68.4457 40.3551 68.5849 39.9801C68.7241 39.6051 68.7937 39.1989 68.7937 38.7614C68.7937 38.3239 68.7241 37.9162 68.5849 37.5384C68.4457 37.1605 68.2312 36.8551 67.9414 36.6222C67.6516 36.3892 67.2823 36.2727 66.8335 36.2727C66.3846 36.2727 66.0153 36.3892 65.7255 36.6222C65.4357 36.8551 65.2212 37.1605 65.082 37.5384C64.9428 37.9162 64.8732 38.3239 64.8732 38.7614C64.8732 39.1989 64.9428 39.6051 65.082 39.9801C65.2212 40.3551 65.4357 40.6577 65.7255 40.8878C66.0153 41.1179 66.3846 41.233 66.8335 41.233ZM71.3345 42V35.4545H72.3061V36.4432H72.3743C72.4936 36.1193 72.7095 35.8565 73.022 35.6548C73.3345 35.4531 73.6868 35.3523 74.0788 35.3523C74.1527 35.3523 74.245 35.3537 74.3558 35.3565C74.4666 35.3594 74.5504 35.3636 74.6072 35.3693V36.392C74.5732 36.3835 74.495 36.3707 74.3729 36.3537C74.2536 36.3338 74.1271 36.3239 73.9936 36.3239C73.6754 36.3239 73.3913 36.3906 73.1413 36.5241C72.8942 36.6548 72.6982 36.8366 72.5533 37.0696C72.4112 37.2997 72.3402 37.5625 72.3402 37.858V42H71.3345ZM78.2422 44.5909C77.7564 44.5909 77.3388 44.5284 76.9893 44.4034C76.6399 44.2812 76.3487 44.1193 76.1158 43.9176C75.8857 43.7188 75.7024 43.5057 75.5661 43.2784L76.3672 42.7159C76.4581 42.8352 76.5732 42.9716 76.7124 43.125C76.8516 43.2812 77.0419 43.4162 77.2834 43.5298C77.5277 43.6463 77.8473 43.7045 78.2422 43.7045C78.7706 43.7045 79.2067 43.5767 79.5504 43.321C79.8942 43.0653 80.0661 42.6648 80.0661 42.1193V40.7898H79.9808C79.907 40.9091 79.8018 41.0568 79.6655 41.233C79.532 41.4062 79.3388 41.5611 79.0859 41.6974C78.8359 41.831 78.4979 41.8977 78.0717 41.8977C77.5433 41.8977 77.0689 41.7727 76.6484 41.5227C76.2308 41.2727 75.8999 40.9091 75.6555 40.4318C75.4141 39.9545 75.2933 39.375 75.2933 38.6932C75.2933 38.0227 75.4112 37.4389 75.647 36.9418C75.8828 36.4418 76.2109 36.0554 76.6314 35.7827C77.0518 35.5071 77.5376 35.3693 78.0888 35.3693C78.5149 35.3693 78.853 35.4403 79.103 35.5824C79.3558 35.7216 79.549 35.8807 79.6825 36.0597C79.8189 36.2358 79.924 36.3807 79.9979 36.4943H80.1001V35.4545H81.0717V42.1875C81.0717 42.75 80.9439 43.2074 80.6882 43.5597C80.4354 43.9148 80.0945 44.1747 79.6655 44.3395C79.2393 44.5071 78.7649 44.5909 78.2422 44.5909ZM78.2081 40.9943C78.6115 40.9943 78.9524 40.902 79.2308 40.7173C79.5092 40.5327 79.7209 40.267 79.8658 39.9205C80.0107 39.5739 80.0831 39.1591 80.0831 38.6761C80.0831 38.2045 80.0121 37.7884 79.87 37.4276C79.728 37.0668 79.5178 36.7841 79.2393 36.5795C78.9609 36.375 78.6172 36.2727 78.2081 36.2727C77.782 36.2727 77.4268 36.3807 77.1428 36.5966C76.8615 36.8125 76.6499 37.1023 76.5078 37.4659C76.3686 37.8295 76.299 38.233 76.299 38.6761C76.299 39.1307 76.37 39.5327 76.5121 39.8821C76.657 40.2287 76.87 40.5014 77.1513 40.7003C77.4354 40.8963 77.7876 40.9943 78.2081 40.9943ZM85.657 42.1364C85.0263 42.1364 84.4822 41.9972 84.0249 41.7188C83.5703 41.4375 83.2195 41.0455 82.9723 40.5426C82.728 40.0369 82.6058 39.4489 82.6058 38.7784C82.6058 38.108 82.728 37.517 82.9723 37.0057C83.2195 36.4915 83.5632 36.0909 84.0036 35.804C84.4467 35.5142 84.9638 35.3693 85.5547 35.3693C85.8956 35.3693 86.2322 35.4261 86.5646 35.5398C86.897 35.6534 87.1996 35.8381 87.4723 36.0938C87.745 36.3466 87.9624 36.6818 88.1243 37.0994C88.2862 37.517 88.3672 38.0312 88.3672 38.642V39.0682H83.3217V38.1989H87.3445C87.3445 37.8295 87.2706 37.5 87.1229 37.2102C86.978 36.9205 86.7706 36.6918 86.5007 36.5241C86.2337 36.3565 85.9183 36.2727 85.5547 36.2727C85.1541 36.2727 84.8075 36.3722 84.5149 36.571C84.2251 36.767 84.0021 37.0227 83.8459 37.3381C83.6896 37.6534 83.6115 37.9915 83.6115 38.3523V38.9318C83.6115 39.4261 83.6967 39.8452 83.8672 40.1889C84.0405 40.5298 84.2805 40.7898 84.5874 40.9688C84.8942 41.1449 85.2507 41.233 85.657 41.233C85.9212 41.233 86.1598 41.196 86.3729 41.1222C86.5888 41.0455 86.7749 40.9318 86.9311 40.7812C87.0874 40.6278 87.2081 40.4375 87.2933 40.2102L88.2649 40.483C88.1626 40.8125 87.9908 41.1023 87.7493 41.3523C87.5078 41.5994 87.2095 41.7926 86.8544 41.9318C86.4993 42.0682 86.1001 42.1364 85.657 42.1364ZM92.7436 35.4545V36.3068H89.3516V35.4545H92.7436ZM90.3402 33.8864H91.3459V40.125C91.3459 40.4091 91.3871 40.6222 91.4695 40.7642C91.5547 40.9034 91.6626 40.9972 91.7933 41.0455C91.9268 41.0909 92.0675 41.1136 92.2152 41.1136C92.326 41.1136 92.4169 41.108 92.4879 41.0966C92.5589 41.0824 92.6158 41.071 92.6584 41.0625L92.8629 41.9659C92.7947 41.9915 92.6996 42.017 92.5774 42.0426C92.4553 42.071 92.3004 42.0852 92.1129 42.0852C91.8288 42.0852 91.5504 42.0241 91.2777 41.902C91.0078 41.7798 90.7834 41.5938 90.6044 41.3438C90.4283 41.0938 90.3402 40.7784 90.3402 40.3977V33.8864ZM100.478 35.4545V36.3068H97.0859V35.4545H100.478ZM98.0746 33.8864H99.0803V40.125C99.0803 40.4091 99.1214 40.6222 99.2038 40.7642C99.2891 40.9034 99.397 40.9972 99.5277 41.0455C99.6612 41.0909 99.8018 41.1136 99.9496 41.1136C100.06 41.1136 100.151 41.108 100.222 41.0966C100.293 41.0824 100.35 41.071 100.393 41.0625L100.597 41.9659C100.529 41.9915 100.434 42.017 100.312 42.0426C100.19 42.071 100.035 42.0852 99.8473 42.0852C99.5632 42.0852 99.2848 42.0241 99.0121 41.902C98.7422 41.7798 98.5178 41.5938 98.3388 41.3438C98.1626 41.0938 98.0746 40.7784 98.0746 40.3977V33.8864ZM104.58 42.1364C103.989 42.1364 103.47 41.9957 103.024 41.7145C102.581 41.4332 102.234 41.0398 101.984 40.5341C101.737 40.0284 101.614 39.4375 101.614 38.7614C101.614 38.0795 101.737 37.4844 101.984 36.9759C102.234 36.4673 102.581 36.0724 103.024 35.7912C103.47 35.5099 103.989 35.3693 104.58 35.3693C105.17 35.3693 105.688 35.5099 106.131 35.7912C106.577 36.0724 106.923 36.4673 107.17 36.9759C107.42 37.4844 107.545 38.0795 107.545 38.7614C107.545 39.4375 107.42 40.0284 107.17 40.5341C106.923 41.0398 106.577 41.4332 106.131 41.7145C105.688 41.9957 105.17 42.1364 104.58 42.1364ZM104.58 41.233C105.028 41.233 105.398 41.1179 105.688 40.8878C105.977 40.6577 106.192 40.3551 106.331 39.9801C106.47 39.6051 106.54 39.1989 106.54 38.7614C106.54 38.3239 106.47 37.9162 106.331 37.5384C106.192 37.1605 105.977 36.8551 105.688 36.6222C105.398 36.3892 105.028 36.2727 104.58 36.2727C104.131 36.2727 103.761 36.3892 103.472 36.6222C103.182 36.8551 102.967 37.1605 102.828 37.5384C102.689 37.9162 102.619 38.3239 102.619 38.7614C102.619 39.1989 102.689 39.6051 102.828 39.9801C102.967 40.3551 103.182 40.6577 103.472 40.8878C103.761 41.1179 104.131 41.233 104.58 41.233ZM115.115 42.1364C114.501 42.1364 113.973 41.9915 113.529 41.7017C113.086 41.4119 112.745 41.0128 112.507 40.5043C112.268 39.9957 112.149 39.4148 112.149 38.7614C112.149 38.0966 112.271 37.5099 112.515 37.0014C112.762 36.4901 113.106 36.0909 113.547 35.804C113.99 35.5142 114.507 35.3693 115.098 35.3693C115.558 35.3693 115.973 35.4545 116.342 35.625C116.711 35.7955 117.014 36.0341 117.25 36.3409C117.485 36.6477 117.632 37.0057 117.689 37.4148H116.683C116.606 37.1165 116.436 36.8523 116.172 36.6222C115.91 36.3892 115.558 36.2727 115.115 36.2727C114.723 36.2727 114.379 36.375 114.083 36.5795C113.791 36.7812 113.562 37.0668 113.397 37.4361C113.235 37.8026 113.154 38.233 113.154 38.7273C113.154 39.233 113.234 39.6733 113.393 40.0483C113.555 40.4233 113.782 40.7145 114.075 40.9219C114.37 41.1293 114.717 41.233 115.115 41.233C115.376 41.233 115.613 41.1875 115.826 41.0966C116.039 41.0057 116.22 40.875 116.368 40.7045C116.515 40.5341 116.62 40.3295 116.683 40.0909H117.689C117.632 40.4773 117.491 40.8253 117.267 41.1349C117.045 41.4418 116.751 41.6861 116.385 41.8679C116.021 42.0469 115.598 42.1364 115.115 42.1364ZM120.164 38.0625V42H119.159V33.2727H120.164V36.4773H120.25C120.403 36.1392 120.633 35.8707 120.94 35.6719C121.25 35.4702 121.662 35.3693 122.176 35.3693C122.622 35.3693 123.012 35.4588 123.348 35.6378C123.683 35.8139 123.943 36.0852 124.127 36.4517C124.315 36.8153 124.409 37.2784 124.409 37.8409V42H123.403V37.9091C123.403 37.3892 123.268 36.9872 122.998 36.7031C122.731 36.4162 122.36 36.2727 121.886 36.2727C121.556 36.2727 121.261 36.3423 121 36.4815C120.741 36.6207 120.537 36.8239 120.386 37.0909C120.238 37.358 120.164 37.6818 120.164 38.0625ZM128.993 42.1364C128.362 42.1364 127.818 41.9972 127.361 41.7188C126.906 41.4375 126.555 41.0455 126.308 40.5426C126.064 40.0369 125.942 39.4489 125.942 38.7784C125.942 38.108 126.064 37.517 126.308 37.0057C126.555 36.4915 126.899 36.0909 127.339 35.804C127.783 35.5142 128.3 35.3693 128.891 35.3693C129.232 35.3693 129.568 35.4261 129.901 35.5398C130.233 35.6534 130.536 35.8381 130.808 36.0938C131.081 36.3466 131.298 36.6818 131.46 37.0994C131.622 37.517 131.703 38.0312 131.703 38.642V39.0682H126.658V38.1989H130.68C130.68 37.8295 130.607 37.5 130.459 37.2102C130.314 36.9205 130.107 36.6918 129.837 36.5241C129.57 36.3565 129.254 36.2727 128.891 36.2727C128.49 36.2727 128.143 36.3722 127.851 36.571C127.561 36.767 127.338 37.0227 127.182 37.3381C127.026 37.6534 126.947 37.9915 126.947 38.3523V38.9318C126.947 39.4261 127.033 39.8452 127.203 40.1889C127.376 40.5298 127.616 40.7898 127.923 40.9688C128.23 41.1449 128.587 41.233 128.993 41.233C129.257 41.233 129.496 41.196 129.709 41.1222C129.925 41.0455 130.111 40.9318 130.267 40.7812C130.423 40.6278 130.544 40.4375 130.629 40.2102L131.601 40.483C131.499 40.8125 131.327 41.1023 131.085 41.3523C130.844 41.5994 130.545 41.7926 130.19 41.9318C129.835 42.0682 129.436 42.1364 128.993 42.1364ZM135.892 42.1364C135.278 42.1364 134.75 41.9915 134.307 41.7017C133.864 41.4119 133.523 41.0128 133.284 40.5043C133.045 39.9957 132.926 39.4148 132.926 38.7614C132.926 38.0966 133.048 37.5099 133.293 37.0014C133.54 36.4901 133.884 36.0909 134.324 35.804C134.767 35.5142 135.284 35.3693 135.875 35.3693C136.335 35.3693 136.75 35.4545 137.119 35.625C137.489 35.7955 137.791 36.0341 138.027 36.3409C138.263 36.6477 138.409 37.0057 138.466 37.4148H137.46C137.384 37.1165 137.213 36.8523 136.949 36.6222C136.688 36.3892 136.335 36.2727 135.892 36.2727C135.5 36.2727 135.156 36.375 134.861 36.5795C134.568 36.7812 134.339 37.0668 134.175 37.4361C134.013 37.8026 133.932 38.233 133.932 38.7273C133.932 39.233 134.011 39.6733 134.17 40.0483C134.332 40.4233 134.56 40.7145 134.852 40.9219C135.148 41.1293 135.494 41.233 135.892 41.233C136.153 41.233 136.391 41.1875 136.604 41.0966C136.817 41.0057 136.997 40.875 137.145 40.7045C137.293 40.5341 137.398 40.3295 137.46 40.0909H138.466C138.409 40.4773 138.268 40.8253 138.044 41.1349C137.822 41.4418 137.528 41.6861 137.162 41.8679C136.798 42.0469 136.375 42.1364 135.892 42.1364ZM140.874 39.6136L140.857 38.3693H141.061L143.925 35.4545H145.169L142.118 38.5398H142.033L140.874 39.6136ZM139.936 42V33.2727H140.942V42H139.936ZM144.095 42L141.538 38.7614L142.254 38.0625L145.374 42H144.095ZM152.498 42.1364C151.907 42.1364 151.388 41.9957 150.942 41.7145C150.499 41.4332 150.152 41.0398 149.902 40.5341C149.655 40.0284 149.532 39.4375 149.532 38.7614C149.532 38.0795 149.655 37.4844 149.902 36.9759C150.152 36.4673 150.499 36.0724 150.942 35.7912C151.388 35.5099 151.907 35.3693 152.498 35.3693C153.088 35.3693 153.605 35.5099 154.049 35.7912C154.495 36.0724 154.841 36.4673 155.088 36.9759C155.338 37.4844 155.463 38.0795 155.463 38.7614C155.463 39.4375 155.338 40.0284 155.088 40.5341C154.841 41.0398 154.495 41.4332 154.049 41.7145C153.605 41.9957 153.088 42.1364 152.498 42.1364ZM152.498 41.233C152.946 41.233 153.316 41.1179 153.605 40.8878C153.895 40.6577 154.11 40.3551 154.249 39.9801C154.388 39.6051 154.458 39.1989 154.458 38.7614C154.458 38.3239 154.388 37.9162 154.249 37.5384C154.11 37.1605 153.895 36.8551 153.605 36.6222C153.316 36.3892 152.946 36.2727 152.498 36.2727C152.049 36.2727 151.679 36.3892 151.39 36.6222C151.1 36.8551 150.885 37.1605 150.746 37.5384C150.607 37.9162 150.537 38.3239 150.537 38.7614C150.537 39.1989 150.607 39.6051 150.746 39.9801C150.885 40.3551 151.1 40.6577 151.39 40.8878C151.679 41.1179 152.049 41.233 152.498 41.233ZM161.124 39.3239V35.4545H162.129V42H161.124V40.892H161.055C160.902 41.2244 160.663 41.5071 160.339 41.7401C160.016 41.9702 159.607 42.0852 159.112 42.0852C158.703 42.0852 158.339 41.9957 158.021 41.8168C157.703 41.6349 157.453 41.3622 157.271 40.9986C157.089 40.6321 156.999 40.1705 156.999 39.6136V35.4545H158.004V39.5455C158.004 40.0227 158.138 40.4034 158.405 40.6875C158.675 40.9716 159.018 41.1136 159.436 41.1136C159.686 41.1136 159.94 41.0497 160.199 40.9219C160.46 40.794 160.679 40.598 160.855 40.3338C161.034 40.0696 161.124 39.733 161.124 39.3239ZM166.818 35.4545V36.3068H163.426V35.4545H166.818ZM164.414 33.8864H165.42V40.125C165.42 40.4091 165.461 40.6222 165.544 40.7642C165.629 40.9034 165.737 40.9972 165.868 41.0455C166.001 41.0909 166.142 41.1136 166.289 41.1136C166.4 41.1136 166.491 41.108 166.562 41.0966C166.633 41.0824 166.69 41.071 166.733 41.0625L166.937 41.9659C166.869 41.9915 166.774 42.017 166.652 42.0426C166.529 42.071 166.375 42.0852 166.187 42.0852C165.903 42.0852 165.625 42.0241 165.352 41.902C165.082 41.7798 164.858 41.5938 164.679 41.3438C164.502 41.0938 164.414 40.7784 164.414 40.3977V33.8864ZM174.552 35.4545V36.3068H171.16V35.4545H174.552ZM172.149 33.8864H173.154V40.125C173.154 40.4091 173.196 40.6222 173.278 40.7642C173.363 40.9034 173.471 40.9972 173.602 41.0455C173.735 41.0909 173.876 41.1136 174.024 41.1136C174.135 41.1136 174.225 41.108 174.297 41.0966C174.368 41.0824 174.424 41.071 174.467 41.0625L174.672 41.9659C174.603 41.9915 174.508 42.017 174.386 42.0426C174.264 42.071 174.109 42.0852 173.922 42.0852C173.637 42.0852 173.359 42.0241 173.086 41.902C172.816 41.7798 172.592 41.5938 172.413 41.3438C172.237 41.0938 172.149 40.7784 172.149 40.3977V33.8864ZM177.211 38.0625V42H176.206V33.2727H177.211V36.4773H177.297C177.45 36.1392 177.68 35.8707 177.987 35.6719C178.297 35.4702 178.708 35.3693 179.223 35.3693C179.669 35.3693 180.059 35.4588 180.395 35.6378C180.73 35.8139 180.99 36.0852 181.174 36.4517C181.362 36.8153 181.456 37.2784 181.456 37.8409V42H180.45V37.9091C180.45 37.3892 180.315 36.9872 180.045 36.7031C179.778 36.4162 179.407 36.2727 178.933 36.2727C178.603 36.2727 178.308 36.3423 178.047 36.4815C177.788 36.6207 177.583 36.8239 177.433 37.0909C177.285 37.358 177.211 37.6818 177.211 38.0625ZM186.04 42.1364C185.409 42.1364 184.865 41.9972 184.408 41.7188C183.953 41.4375 183.602 41.0455 183.355 40.5426C183.111 40.0369 182.989 39.4489 182.989 38.7784C182.989 38.108 183.111 37.517 183.355 37.0057C183.602 36.4915 183.946 36.0909 184.386 35.804C184.83 35.5142 185.347 35.3693 185.938 35.3693C186.278 35.3693 186.615 35.4261 186.947 35.5398C187.28 35.6534 187.582 35.8381 187.855 36.0938C188.128 36.3466 188.345 36.6818 188.507 37.0994C188.669 37.517 188.75 38.0312 188.75 38.642V39.0682H183.705V38.1989H187.727C187.727 37.8295 187.653 37.5 187.506 37.2102C187.361 36.9205 187.153 36.6918 186.884 36.5241C186.616 36.3565 186.301 36.2727 185.938 36.2727C185.537 36.2727 185.19 36.3722 184.898 36.571C184.608 36.767 184.385 37.0227 184.229 37.3381C184.072 37.6534 183.994 37.9915 183.994 38.3523V38.9318C183.994 39.4261 184.08 39.8452 184.25 40.1889C184.423 40.5298 184.663 40.7898 184.97 40.9688C185.277 41.1449 185.634 41.233 186.04 41.233C186.304 41.233 186.543 41.196 186.756 41.1222C186.972 41.0455 187.158 40.9318 187.314 40.7812C187.47 40.6278 187.591 40.4375 187.676 40.2102L188.648 40.483C188.545 40.8125 188.374 41.1023 188.132 41.3523C187.891 41.5994 187.592 41.7926 187.237 41.9318C186.882 42.0682 186.483 42.1364 186.04 42.1364ZM194.916 36.9205L194.013 37.1761C193.956 37.0256 193.872 36.8793 193.761 36.7372C193.653 36.5923 193.506 36.473 193.318 36.3793C193.131 36.2855 192.891 36.2386 192.598 36.2386C192.197 36.2386 191.864 36.331 191.597 36.5156C191.332 36.6974 191.2 36.929 191.2 37.2102C191.2 37.4602 191.291 37.6577 191.473 37.8026C191.655 37.9474 191.939 38.0682 192.325 38.1648L193.297 38.4034C193.882 38.5455 194.318 38.7628 194.605 39.0554C194.892 39.3452 195.036 39.7187 195.036 40.1761C195.036 40.5511 194.928 40.8864 194.712 41.1818C194.499 41.4773 194.2 41.7102 193.817 41.8807C193.433 42.0511 192.987 42.1364 192.479 42.1364C191.811 42.1364 191.259 41.9915 190.821 41.7017C190.384 41.4119 190.107 40.9886 189.99 40.4318L190.945 40.1932C191.036 40.5455 191.207 40.8097 191.46 40.9858C191.716 41.1619 192.05 41.25 192.462 41.25C192.93 41.25 193.303 41.1506 193.578 40.9517C193.857 40.75 193.996 40.5085 193.996 40.2273C193.996 40 193.916 39.8097 193.757 39.6562C193.598 39.5 193.354 39.3835 193.024 39.3068L191.933 39.0511C191.334 38.9091 190.893 38.6889 190.612 38.3906C190.334 38.0895 190.195 37.7131 190.195 37.2614C190.195 36.892 190.298 36.5653 190.506 36.2812C190.716 35.9972 191.001 35.7741 191.362 35.6122C191.726 35.4503 192.138 35.3693 192.598 35.3693C193.246 35.3693 193.754 35.5114 194.124 35.7955C194.496 36.0795 194.76 36.4545 194.916 36.9205ZM199.294 42.1364C198.663 42.1364 198.119 41.9972 197.662 41.7188C197.207 41.4375 196.856 41.0455 196.609 40.5426C196.365 40.0369 196.243 39.4489 196.243 38.7784C196.243 38.108 196.365 37.517 196.609 37.0057C196.856 36.4915 197.2 36.0909 197.64 35.804C198.083 35.5142 198.6 35.3693 199.191 35.3693C199.532 35.3693 199.869 35.4261 200.201 35.5398C200.534 35.6534 200.836 35.8381 201.109 36.0938C201.382 36.3466 201.599 36.6818 201.761 37.0994C201.923 37.517 202.004 38.0312 202.004 38.642V39.0682H196.958V38.1989H200.981C200.981 37.8295 200.907 37.5 200.76 37.2102C200.615 36.9205 200.407 36.6918 200.137 36.5241C199.87 36.3565 199.555 36.2727 199.191 36.2727C198.791 36.2727 198.444 36.3722 198.152 36.571C197.862 36.767 197.639 37.0227 197.483 37.3381C197.326 37.6534 197.248 37.9915 197.248 38.3523V38.9318C197.248 39.4261 197.333 39.8452 197.504 40.1889C197.677 40.5298 197.917 40.7898 198.224 40.9688C198.531 41.1449 198.887 41.233 199.294 41.233C199.558 41.233 199.797 41.196 200.01 41.1222C200.225 41.0455 200.412 40.9318 200.568 40.7812C200.724 40.6278 200.845 40.4375 200.93 40.2102L201.902 40.483C201.799 40.8125 201.627 41.1023 201.386 41.3523C201.145 41.5994 200.846 41.7926 200.491 41.9318C200.136 42.0682 199.737 42.1364 199.294 42.1364ZM208.392 42L206.397 35.4545H207.454L208.869 40.4659H208.937L210.335 35.4545H211.409L212.789 40.4489H212.858L214.272 35.4545H215.329L213.335 42H212.346L210.914 36.9716H210.812L209.38 42H208.392ZM217.664 38.0625V42H216.659V33.2727H217.664V36.4773H217.75C217.903 36.1392 218.133 35.8707 218.44 35.6719C218.75 35.4702 219.162 35.3693 219.676 35.3693C220.122 35.3693 220.512 35.4588 220.848 35.6378C221.183 35.8139 221.443 36.0852 221.627 36.4517C221.815 36.8153 221.909 37.2784 221.909 37.8409V42H220.903V37.9091C220.903 37.3892 220.768 36.9872 220.498 36.7031C220.231 36.4162 219.86 36.2727 219.386 36.2727C219.056 36.2727 218.761 36.3423 218.5 36.4815C218.241 36.6207 218.037 36.8239 217.886 37.0909C217.738 37.358 217.664 37.6818 217.664 38.0625ZM223.749 42V35.4545H224.754V42H223.749ZM224.26 34.3636C224.064 34.3636 223.895 34.2969 223.753 34.1634C223.614 34.0298 223.544 33.8693 223.544 33.6818C223.544 33.4943 223.614 33.3338 223.753 33.2003C223.895 33.0668 224.064 33 224.26 33C224.456 33 224.624 33.0668 224.763 33.2003C224.905 33.3338 224.976 33.4943 224.976 33.6818C224.976 33.8693 224.905 34.0298 224.763 34.1634C224.624 34.2969 224.456 34.3636 224.26 34.3636ZM227.602 33.2727V42H226.596V33.2727H227.602ZM232.188 42.1364C231.558 42.1364 231.013 41.9972 230.556 41.7188C230.102 41.4375 229.751 41.0455 229.504 40.5426C229.259 40.0369 229.137 39.4489 229.137 38.7784C229.137 38.108 229.259 37.517 229.504 37.0057C229.751 36.4915 230.094 36.0909 230.535 35.804C230.978 35.5142 231.495 35.3693 232.086 35.3693C232.427 35.3693 232.763 35.4261 233.096 35.5398C233.428 35.6534 233.731 35.8381 234.004 36.0938C234.276 36.3466 234.494 36.6818 234.656 37.0994C234.817 37.517 234.898 38.0312 234.898 38.642V39.0682H229.853V38.1989H233.876C233.876 37.8295 233.802 37.5 233.654 37.2102C233.509 36.9205 233.302 36.6918 233.032 36.5241C232.765 36.3565 232.45 36.2727 232.086 36.2727C231.685 36.2727 231.339 36.3722 231.046 36.571C230.756 36.767 230.533 37.0227 230.377 37.3381C230.221 37.6534 230.143 37.9915 230.143 38.3523V38.9318C230.143 39.4261 230.228 39.8452 230.398 40.1889C230.572 40.5298 230.812 40.7898 231.119 40.9688C231.425 41.1449 231.782 41.233 232.188 41.233C232.452 41.233 232.691 41.196 232.904 41.1222C233.12 41.0455 233.306 40.9318 233.462 40.7812C233.619 40.6278 233.739 40.4375 233.825 40.2102L234.796 40.483C234.694 40.8125 234.522 41.1023 234.281 41.3523C234.039 41.5994 233.741 41.7926 233.386 41.9318C233.031 42.0682 232.631 42.1364 232.188 42.1364ZM240.451 44.4545C240.281 44.4545 240.129 44.4403 239.995 44.4119C239.862 44.3864 239.769 44.3608 239.718 44.3352L239.974 43.4489C240.218 43.5114 240.434 43.5341 240.621 43.517C240.809 43.5 240.975 43.4162 241.12 43.2656C241.268 43.1179 241.403 42.8778 241.525 42.5455L241.712 42.0341L239.292 35.4545H240.383L242.19 40.6705H242.258L244.065 35.4545H245.156L242.377 42.9545C242.252 43.2926 242.097 43.5724 241.913 43.794C241.728 44.0185 241.513 44.1847 241.269 44.2926C241.028 44.4006 240.755 44.4545 240.451 44.4545ZM248.908 42.1364C248.317 42.1364 247.798 41.9957 247.352 41.7145C246.909 41.4332 246.562 41.0398 246.312 40.5341C246.065 40.0284 245.942 39.4375 245.942 38.7614C245.942 38.0795 246.065 37.4844 246.312 36.9759C246.562 36.4673 246.909 36.0724 247.352 35.7912C247.798 35.5099 248.317 35.3693 248.908 35.3693C249.499 35.3693 250.016 35.5099 250.459 35.7912C250.905 36.0724 251.251 36.4673 251.499 36.9759C251.749 37.4844 251.874 38.0795 251.874 38.7614C251.874 39.4375 251.749 40.0284 251.499 40.5341C251.251 41.0398 250.905 41.4332 250.459 41.7145C250.016 41.9957 249.499 42.1364 248.908 42.1364ZM248.908 41.233C249.357 41.233 249.726 41.1179 250.016 40.8878C250.305 40.6577 250.52 40.3551 250.659 39.9801C250.798 39.6051 250.868 39.1989 250.868 38.7614C250.868 38.3239 250.798 37.9162 250.659 37.5384C250.52 37.1605 250.305 36.8551 250.016 36.6222C249.726 36.3892 249.357 36.2727 248.908 36.2727C248.459 36.2727 248.089 36.3892 247.8 36.6222C247.51 36.8551 247.295 37.1605 247.156 37.5384C247.017 37.9162 246.947 38.3239 246.947 38.7614C246.947 39.1989 247.017 39.6051 247.156 39.9801C247.295 40.3551 247.51 40.6577 247.8 40.8878C248.089 41.1179 248.459 41.233 248.908 41.233ZM257.534 39.3239V35.4545H258.539V42H257.534V40.892H257.466C257.312 41.2244 257.074 41.5071 256.75 41.7401C256.426 41.9702 256.017 42.0852 255.522 42.0852C255.113 42.0852 254.75 41.9957 254.431 41.8168C254.113 41.6349 253.863 41.3622 253.681 40.9986C253.5 40.6321 253.409 40.1705 253.409 39.6136V35.4545H254.414V39.5455C254.414 40.0227 254.548 40.4034 254.815 40.6875C255.085 40.9716 255.429 41.1136 255.846 41.1136C256.096 41.1136 256.35 41.0497 256.609 40.9219C256.87 40.794 257.089 40.598 257.265 40.3338C257.444 40.0696 257.534 39.733 257.534 39.3239ZM261.251 33.2727V36.2727H260.313V33.2727H261.251ZM263.042 42V35.4545H264.013V36.4432H264.081C264.201 36.1193 264.417 35.8565 264.729 35.6548C265.042 35.4531 265.394 35.3523 265.786 35.3523C265.86 35.3523 265.952 35.3537 266.063 35.3565C266.174 35.3594 266.257 35.3636 266.314 35.3693V36.392C266.28 36.3835 266.202 36.3707 266.08 36.3537C265.961 36.3338 265.834 36.3239 265.701 36.3239C265.382 36.3239 265.098 36.3906 264.848 36.5241C264.601 36.6548 264.405 36.8366 264.26 37.0696C264.118 37.2997 264.047 37.5625 264.047 37.858V42H263.042ZM270.051 42.1364C269.421 42.1364 268.877 41.9972 268.419 41.7188C267.965 41.4375 267.614 41.0455 267.367 40.5426C267.123 40.0369 267 39.4489 267 38.7784C267 38.108 267.123 37.517 267.367 37.0057C267.614 36.4915 267.958 36.0909 268.398 35.804C268.841 35.5142 269.358 35.3693 269.949 35.3693C270.29 35.3693 270.627 35.4261 270.959 35.5398C271.292 35.6534 271.594 35.8381 271.867 36.0938C272.14 36.3466 272.357 36.6818 272.519 37.0994C272.681 37.517 272.762 38.0312 272.762 38.642V39.0682H267.716V38.1989H271.739C271.739 37.8295 271.665 37.5 271.517 37.2102C271.373 36.9205 271.165 36.6918 270.895 36.5241C270.628 36.3565 270.313 36.2727 269.949 36.2727C269.549 36.2727 269.202 36.3722 268.909 36.571C268.62 36.767 268.397 37.0227 268.24 37.3381C268.084 37.6534 268.006 37.9915 268.006 38.3523V38.9318C268.006 39.4261 268.091 39.8452 268.262 40.1889C268.435 40.5298 268.675 40.7898 268.982 40.9688C269.289 41.1449 269.645 41.233 270.051 41.233C270.316 41.233 270.554 41.196 270.767 41.1222C270.983 41.0455 271.169 40.9318 271.326 40.7812C271.482 40.6278 271.603 40.4375 271.688 40.2102L272.659 40.483C272.557 40.8125 272.385 41.1023 272.144 41.3523C271.902 41.5994 271.604 41.7926 271.249 41.9318C270.894 42.0682 270.495 42.1364 270.051 42.1364ZM278.672 38.0625V42H277.667V33.2727H278.672V36.4773H278.757C278.911 36.1392 279.141 35.8707 279.448 35.6719C279.757 35.4702 280.169 35.3693 280.684 35.3693C281.13 35.3693 281.52 35.4588 281.855 35.6378C282.191 35.8139 282.451 36.0852 282.635 36.4517C282.823 36.8153 282.917 37.2784 282.917 37.8409V42H281.911V37.9091C281.911 37.3892 281.776 36.9872 281.506 36.7031C281.239 36.4162 280.868 36.2727 280.394 36.2727C280.064 36.2727 279.769 36.3423 279.507 36.4815C279.249 36.6207 279.044 36.8239 278.894 37.0909C278.746 37.358 278.672 37.6818 278.672 38.0625ZM287.501 42.1364C286.87 42.1364 286.326 41.9972 285.869 41.7188C285.414 41.4375 285.063 41.0455 284.816 40.5426C284.572 40.0369 284.45 39.4489 284.45 38.7784C284.45 38.108 284.572 37.517 284.816 37.0057C285.063 36.4915 285.407 36.0909 285.847 35.804C286.29 35.5142 286.808 35.3693 287.398 35.3693C287.739 35.3693 288.076 35.4261 288.408 35.5398C288.741 35.6534 289.043 35.8381 289.316 36.0938C289.589 36.3466 289.806 36.6818 289.968 37.0994C290.13 37.517 290.211 38.0312 290.211 38.642V39.0682H285.165V38.1989H289.188C289.188 37.8295 289.114 37.5 288.967 37.2102C288.822 36.9205 288.614 36.6918 288.344 36.5241C288.077 36.3565 287.762 36.2727 287.398 36.2727C286.998 36.2727 286.651 36.3722 286.359 36.571C286.069 36.767 285.846 37.0227 285.69 37.3381C285.533 37.6534 285.455 37.9915 285.455 38.3523V38.9318C285.455 39.4261 285.54 39.8452 285.711 40.1889C285.884 40.5298 286.124 40.7898 286.431 40.9688C286.738 41.1449 287.094 41.233 287.501 41.233C287.765 41.233 288.004 41.196 288.217 41.1222C288.433 41.0455 288.619 40.9318 288.775 40.7812C288.931 40.6278 289.052 40.4375 289.137 40.2102L290.109 40.483C290.006 40.8125 289.835 41.1023 289.593 41.3523C289.352 41.5994 289.053 41.7926 288.698 41.9318C288.343 42.0682 287.944 42.1364 287.501 42.1364ZM291.741 42V35.4545H292.712V36.4432H292.781C292.9 36.1193 293.116 35.8565 293.428 35.6548C293.741 35.4531 294.093 35.3523 294.485 35.3523C294.559 35.3523 294.651 35.3537 294.762 35.3565C294.873 35.3594 294.957 35.3636 295.013 35.3693V36.392C294.979 36.3835 294.901 36.3707 294.779 36.3537C294.66 36.3338 294.533 36.3239 294.4 36.3239C294.082 36.3239 293.798 36.3906 293.548 36.5241C293.3 36.6548 293.104 36.8366 292.96 37.0696C292.817 37.2997 292.746 37.5625 292.746 37.858V42H291.741ZM298.751 42.1364C298.12 42.1364 297.576 41.9972 297.119 41.7188C296.664 41.4375 296.313 41.0455 296.066 40.5426C295.822 40.0369 295.7 39.4489 295.7 38.7784C295.7 38.108 295.822 37.517 296.066 37.0057C296.313 36.4915 296.657 36.0909 297.097 35.804C297.54 35.5142 298.058 35.3693 298.648 35.3693C298.989 35.3693 299.326 35.4261 299.658 35.5398C299.991 35.6534 300.293 35.8381 300.566 36.0938C300.839 36.3466 301.056 36.6818 301.218 37.0994C301.38 37.517 301.461 38.0312 301.461 38.642V39.0682H296.415V38.1989H300.438C300.438 37.8295 300.364 37.5 300.217 37.2102C300.072 36.9205 299.864 36.6918 299.594 36.5241C299.327 36.3565 299.012 36.2727 298.648 36.2727C298.248 36.2727 297.901 36.3722 297.609 36.571C297.319 36.767 297.096 37.0227 296.94 37.3381C296.783 37.6534 296.705 37.9915 296.705 38.3523V38.9318C296.705 39.4261 296.79 39.8452 296.961 40.1889C297.134 40.5298 297.374 40.7898 297.681 40.9688C297.988 41.1449 298.344 41.233 298.751 41.233C299.015 41.233 299.254 41.196 299.467 41.1222C299.683 41.0455 299.869 40.9318 300.025 40.7812C300.181 40.6278 300.302 40.4375 300.387 40.2102L301.359 40.483C301.256 40.8125 301.085 41.1023 300.843 41.3523C300.602 41.5994 300.303 41.7926 299.948 41.9318C299.593 42.0682 299.194 42.1364 298.751 42.1364Z" fill="white"/>
<rect x="26.0948" y="157.126" width="106.578" height="35.1216" rx="12" fill="white"/>
<path d="M44.5057 172.691C44.4603 172.288 44.2728 171.975 43.9432 171.754C43.6137 171.529 43.1989 171.417 42.6989 171.417C42.3409 171.417 42.0313 171.474 41.7699 171.588C41.5085 171.698 41.3054 171.852 41.1605 172.048C41.0185 172.241 40.9475 172.461 40.9475 172.708C40.9475 172.916 40.9958 173.095 41.0924 173.245C41.1918 173.396 41.321 173.522 41.4801 173.625C41.6421 173.724 41.8154 173.808 42 173.876C42.1847 173.941 42.3622 173.995 42.5327 174.038L43.385 174.259C43.6634 174.328 43.9489 174.42 44.2415 174.536C44.5341 174.653 44.8054 174.806 45.0554 174.997C45.3054 175.187 45.5071 175.423 45.6605 175.704C45.8168 175.985 45.8949 176.322 45.8949 176.714C45.8949 177.208 45.7671 177.647 45.5114 178.031C45.2585 178.414 44.8907 178.717 44.4077 178.938C43.9276 179.16 43.3466 179.271 42.6648 179.271C42.0114 179.271 41.446 179.167 40.9688 178.96C40.4915 178.752 40.1179 178.458 39.848 178.078C39.5781 177.694 39.429 177.24 39.4006 176.714H40.7216C40.7472 177.029 40.8495 177.292 41.0284 177.502C41.2103 177.71 41.4418 177.865 41.723 177.967C42.0071 178.066 42.3182 178.116 42.6563 178.116C43.0284 178.116 43.3594 178.058 43.6492 177.941C43.9418 177.822 44.1719 177.657 44.3395 177.447C44.5071 177.234 44.5909 176.985 44.5909 176.701C44.5909 176.443 44.5171 176.231 44.3693 176.066C44.2245 175.902 44.027 175.765 43.777 175.657C43.5299 175.549 43.25 175.454 42.9375 175.372L41.9063 175.09C41.2074 174.9 40.6534 174.62 40.2443 174.251C39.8381 173.882 39.635 173.393 39.635 172.785C39.635 172.282 39.7713 171.843 40.0441 171.468C40.3168 171.093 40.6861 170.802 41.152 170.595C41.6179 170.384 42.1435 170.279 42.7287 170.279C43.3196 170.279 43.8409 170.383 44.2926 170.59C44.7472 170.798 45.1051 171.083 45.3665 171.447C45.6279 171.808 45.7642 172.223 45.7756 172.691H44.5057ZM50.1872 179.258C49.5423 179.258 48.9869 179.12 48.521 178.845C48.0579 178.566 47.7 178.176 47.4471 177.673C47.1971 177.167 47.0721 176.575 47.0721 175.896C47.0721 175.225 47.1971 174.634 47.4471 174.123C47.7 173.612 48.0522 173.213 48.5039 172.926C48.9585 172.639 49.4897 172.495 50.0977 172.495C50.467 172.495 50.825 172.556 51.1715 172.679C51.5181 172.801 51.8292 172.992 52.1048 173.254C52.3804 173.515 52.5977 173.855 52.7568 174.272C52.9159 174.687 52.9954 175.191 52.9954 175.785V176.237H47.7923V175.282H51.7468C51.7468 174.947 51.6786 174.65 51.5423 174.392C51.4059 174.13 51.2142 173.924 50.967 173.774C50.7227 173.623 50.4357 173.548 50.1062 173.548C49.7482 173.548 49.4357 173.636 49.1687 173.812C48.9045 173.985 48.7 174.213 48.5551 174.494C48.413 174.772 48.342 175.075 48.342 175.402V176.147C48.342 176.585 48.4187 176.957 48.5721 177.264C48.7284 177.571 48.9457 177.805 49.2241 177.967C49.5025 178.126 49.8278 178.206 50.2 178.206C50.4414 178.206 50.6616 178.171 50.8605 178.103C51.0593 178.032 51.2312 177.927 51.3761 177.788C51.521 177.649 51.6318 177.477 51.7085 177.272L52.9144 177.49C52.8179 177.845 52.6446 178.156 52.3946 178.423C52.1474 178.687 51.8363 178.893 51.4613 179.041C51.0892 179.186 50.6644 179.258 50.1872 179.258ZM57.2301 179.258C56.5853 179.258 56.0299 179.12 55.5639 178.845C55.1009 178.566 54.7429 178.176 54.4901 177.673C54.2401 177.167 54.1151 176.575 54.1151 175.896C54.1151 175.225 54.2401 174.634 54.4901 174.123C54.7429 173.612 55.0952 173.213 55.5469 172.926C56.0014 172.639 56.5327 172.495 57.1407 172.495C57.51 172.495 57.8679 172.556 58.2145 172.679C58.5611 172.801 58.8722 172.992 59.1478 173.254C59.4233 173.515 59.6407 173.855 59.7997 174.272C59.9588 174.687 60.0384 175.191 60.0384 175.785V176.237H54.8353V175.282H58.7898C58.7898 174.947 58.7216 174.65 58.5853 174.392C58.4489 174.13 58.2571 173.924 58.01 173.774C57.7657 173.623 57.4787 173.548 57.1492 173.548C56.7912 173.548 56.4787 173.636 56.2117 173.812C55.9475 173.985 55.7429 174.213 55.598 174.494C55.456 174.772 55.385 175.075 55.385 175.402V176.147C55.385 176.585 55.4617 176.957 55.6151 177.264C55.7713 177.571 55.9887 177.805 56.2671 177.967C56.5455 178.126 56.8708 178.206 57.2429 178.206C57.4844 178.206 57.7046 178.171 57.9034 178.103C58.1023 178.032 58.2742 177.927 58.4191 177.788C58.5639 177.649 58.6747 177.477 58.7514 177.272L59.9574 177.49C59.8608 177.845 59.6875 178.156 59.4375 178.423C59.1904 178.687 58.8793 178.893 58.5043 179.041C58.1321 179.186 57.7074 179.258 57.2301 179.258ZM64.6279 181.581V172.581H65.8722V173.642H65.9787C66.0526 173.505 66.1591 173.348 66.2983 173.169C66.4375 172.99 66.6307 172.833 66.8779 172.7C67.125 172.563 67.4517 172.495 67.858 172.495C68.3864 172.495 68.858 172.629 69.2728 172.896C69.6875 173.163 70.0128 173.548 70.2486 174.051C70.4872 174.554 70.6066 175.159 70.6066 175.866C70.6066 176.573 70.4887 177.18 70.2529 177.686C70.0171 178.188 69.6932 178.576 69.2813 178.849C68.8693 179.119 68.3992 179.254 67.8708 179.254C67.473 179.254 67.1478 179.187 66.8949 179.054C66.6449 178.92 66.4489 178.764 66.3068 178.585C66.1648 178.406 66.0554 178.247 65.9787 178.108H65.902V181.581H64.6279ZM65.8764 175.853C65.8764 176.313 65.9432 176.717 66.0767 177.063C66.2103 177.41 66.4034 177.681 66.6563 177.877C66.9091 178.071 67.2188 178.167 67.5853 178.167C67.9659 178.167 68.2841 178.066 68.5398 177.865C68.7955 177.66 68.9887 177.383 69.1193 177.034C69.2529 176.684 69.3196 176.291 69.3196 175.853C69.3196 175.421 69.2543 175.034 69.1236 174.69C68.9958 174.346 68.8026 174.075 68.5441 173.876C68.2884 173.677 67.9688 173.578 67.5853 173.578C67.2159 173.578 66.9034 173.673 66.6478 173.863C66.3949 174.054 66.2032 174.319 66.0725 174.66C65.9418 175.001 65.8764 175.399 65.8764 175.853ZM73.9389 179.271C73.5242 179.271 73.1492 179.194 72.8139 179.041C72.4787 178.884 72.2131 178.659 72.0171 178.363C71.8239 178.068 71.7273 177.706 71.7273 177.277C71.7273 176.907 71.7983 176.603 71.9404 176.365C72.0824 176.126 72.2742 175.937 72.5157 175.798C72.7571 175.659 73.027 175.554 73.3253 175.483C73.6236 175.411 73.9276 175.358 74.2372 175.321C74.6293 175.275 74.9475 175.238 75.1918 175.21C75.4361 175.179 75.6137 175.129 75.7245 175.061C75.8353 174.992 75.8907 174.882 75.8907 174.728V174.698C75.8907 174.326 75.7855 174.038 75.5753 173.833C75.3679 173.629 75.0583 173.527 74.6463 173.527C74.2174 173.527 73.8793 173.622 73.6321 173.812C73.3878 174 73.2188 174.208 73.125 174.438L71.9276 174.166C72.0696 173.768 72.277 173.447 72.5497 173.203C72.8253 172.956 73.1421 172.777 73.5 172.666C73.858 172.552 74.2344 172.495 74.6293 172.495C74.8907 172.495 75.1676 172.527 75.4603 172.589C75.7557 172.649 76.0313 172.759 76.287 172.921C76.5455 173.083 76.7571 173.315 76.9219 173.616C77.0867 173.914 77.1691 174.302 77.1691 174.779V179.126H75.9247V178.231H75.8736C75.7912 178.396 75.6676 178.558 75.5029 178.717C75.3381 178.876 75.1264 179.008 74.8679 179.113C74.6094 179.218 74.2997 179.271 73.9389 179.271ZM74.2159 178.248C74.5682 178.248 74.8693 178.179 75.1193 178.039C75.3722 177.9 75.5639 177.718 75.6946 177.494C75.8282 177.267 75.8949 177.024 75.8949 176.765V175.921C75.8495 175.967 75.7614 176.009 75.6307 176.049C75.5029 176.086 75.3566 176.119 75.1918 176.147C75.027 176.173 74.8665 176.197 74.7103 176.22C74.554 176.24 74.4233 176.257 74.3182 176.271C74.071 176.302 73.8452 176.355 73.6407 176.429C73.4389 176.502 73.277 176.609 73.1549 176.748C73.0355 176.884 72.9759 177.066 72.9759 177.294C72.9759 177.609 73.0924 177.848 73.3253 178.009C73.5583 178.169 73.8551 178.248 74.2159 178.248ZM81.6232 179.258C80.9897 179.258 80.4443 179.115 79.9869 178.828C79.5323 178.538 79.1829 178.139 78.9386 177.63C78.6943 177.122 78.5721 176.539 78.5721 175.883C78.5721 175.218 78.6971 174.632 78.9471 174.123C79.1971 173.612 79.5494 173.213 80.0039 172.926C80.4585 172.639 80.994 172.495 81.6105 172.495C82.1076 172.495 82.5508 172.588 82.94 172.772C83.3292 172.954 83.6431 173.21 83.8818 173.539C84.1232 173.869 84.2667 174.254 84.3122 174.694H83.0721C83.0039 174.387 82.8477 174.123 82.6034 173.902C82.3619 173.68 82.038 173.569 81.6318 173.569C81.2767 173.569 80.9656 173.663 80.6985 173.85C80.4343 174.035 80.2284 174.299 80.0806 174.643C79.9329 174.984 79.859 175.387 79.859 175.853C79.859 176.331 79.9315 176.742 80.0764 177.089C80.2213 177.436 80.4258 177.704 80.69 177.894C80.9571 178.085 81.271 178.18 81.6318 178.18C81.8732 178.18 82.092 178.136 82.288 178.048C82.4869 177.957 82.6531 177.828 82.7866 177.66C82.923 177.492 83.0181 177.291 83.0721 177.055H84.3122C84.2667 177.478 84.1289 177.856 83.8988 178.188C83.6687 178.521 83.3605 178.782 82.9741 178.973C82.5906 179.163 82.1403 179.258 81.6232 179.258ZM86.8466 176.906L86.8381 175.35H87.0597L89.6676 172.581H91.1932L88.2188 175.734H88.0185L86.8466 176.906ZM85.6747 179.126V170.399H86.9489V179.126H85.6747ZM89.8083 179.126L87.4645 176.015L88.3424 175.125L91.3722 179.126H89.8083ZM94.2593 179.271C93.8445 179.271 93.4695 179.194 93.1343 179.041C92.799 178.884 92.5334 178.659 92.3374 178.363C92.1442 178.068 92.0476 177.706 92.0476 177.277C92.0476 176.907 92.1186 176.603 92.2607 176.365C92.4027 176.126 92.5945 175.937 92.836 175.798C93.0774 175.659 93.3473 175.554 93.6456 175.483C93.9439 175.411 94.2479 175.358 94.5576 175.321C94.9496 175.275 95.2678 175.238 95.5121 175.21C95.7564 175.179 95.934 175.129 96.0448 175.061C96.1556 174.992 96.211 174.882 96.211 174.728V174.698C96.211 174.326 96.1058 174.038 95.8956 173.833C95.6882 173.629 95.3786 173.527 94.9666 173.527C94.5377 173.527 94.1996 173.622 93.9524 173.812C93.7081 174 93.5391 174.208 93.4453 174.438L92.2479 174.166C92.3899 173.768 92.5973 173.447 92.8701 173.203C93.1456 172.956 93.4624 172.777 93.8203 172.666C94.1783 172.552 94.5547 172.495 94.9496 172.495C95.211 172.495 95.488 172.527 95.7806 172.589C96.076 172.649 96.3516 172.759 96.6073 172.921C96.8658 173.083 97.0774 173.315 97.2422 173.616C97.407 173.914 97.4894 174.302 97.4894 174.779V179.126H96.2451V178.231H96.1939C96.1115 178.396 95.988 178.558 95.8232 178.717C95.6584 178.876 95.4468 179.008 95.1882 179.113C94.9297 179.218 94.6201 179.271 94.2593 179.271ZM94.5362 178.248C94.8885 178.248 95.1897 178.179 95.4397 178.039C95.6925 177.9 95.8843 177.718 96.0149 177.494C96.1485 177.267 96.2152 177.024 96.2152 176.765V175.921C96.1698 175.967 96.0817 176.009 95.951 176.049C95.8232 176.086 95.6769 176.119 95.5121 176.147C95.3473 176.173 95.1868 176.197 95.0306 176.22C94.8743 176.24 94.7436 176.257 94.6385 176.271C94.3914 176.302 94.1655 176.355 93.961 176.429C93.7593 176.502 93.5973 176.609 93.4752 176.748C93.3558 176.884 93.2962 177.066 93.2962 177.294C93.2962 177.609 93.4127 177.848 93.6456 178.009C93.8786 178.169 94.1755 178.248 94.5362 178.248ZM101.931 181.717C101.411 181.717 100.963 181.649 100.588 181.512C100.216 181.376 99.9123 181.196 99.6765 180.971C99.4407 180.747 99.2646 180.501 99.1481 180.234L100.243 179.782C100.32 179.907 100.422 180.039 100.55 180.179C100.681 180.321 100.857 180.441 101.079 180.541C101.303 180.64 101.591 180.69 101.944 180.69C102.427 180.69 102.826 180.572 103.141 180.336C103.456 180.103 103.614 179.731 103.614 179.22V177.933H103.533C103.456 178.072 103.346 178.227 103.201 178.397C103.059 178.568 102.863 178.715 102.613 178.84C102.363 178.965 102.037 179.028 101.637 179.028C101.12 179.028 100.654 178.907 100.239 178.666C99.8271 178.421 99.5004 178.062 99.2589 177.588C99.0203 177.11 98.901 176.524 98.901 175.828C98.901 175.132 99.0188 174.535 99.2546 174.038C99.4933 173.541 99.82 173.16 100.235 172.896C100.65 172.629 101.12 172.495 101.645 172.495C102.052 172.495 102.38 172.563 102.63 172.7C102.88 172.833 103.074 172.99 103.213 173.169C103.355 173.348 103.465 173.505 103.542 173.642H103.635V172.581H104.884V179.271C104.884 179.833 104.753 180.295 104.492 180.656C104.23 181.017 103.877 181.284 103.431 181.457C102.988 181.63 102.488 181.717 101.931 181.717ZM101.918 177.971C102.284 177.971 102.594 177.886 102.847 177.715C103.103 177.542 103.296 177.295 103.427 176.974C103.56 176.65 103.627 176.262 103.627 175.811C103.627 175.37 103.561 174.983 103.431 174.647C103.3 174.312 103.108 174.051 102.855 173.863C102.603 173.673 102.29 173.578 101.918 173.578C101.534 173.578 101.215 173.677 100.959 173.876C100.704 174.072 100.51 174.339 100.38 174.677C100.252 175.015 100.188 175.393 100.188 175.811C100.188 176.24 100.253 176.616 100.384 176.94C100.515 177.264 100.708 177.517 100.963 177.698C101.222 177.88 101.54 177.971 101.918 177.971ZM109.414 179.258C108.769 179.258 108.213 179.12 107.748 178.845C107.284 178.566 106.927 178.176 106.674 177.673C106.424 177.167 106.299 176.575 106.299 175.896C106.299 175.225 106.424 174.634 106.674 174.123C106.927 173.612 107.279 173.213 107.73 172.926C108.185 172.639 108.716 172.495 109.324 172.495C109.694 172.495 110.052 172.556 110.398 172.679C110.745 172.801 111.056 172.992 111.331 173.254C111.607 173.515 111.824 173.855 111.983 174.272C112.142 174.687 112.222 175.191 112.222 175.785V176.237H107.019V175.282H110.973C110.973 174.947 110.905 174.65 110.769 174.392C110.632 174.13 110.441 173.924 110.194 173.774C109.949 173.623 109.662 173.548 109.333 173.548C108.975 173.548 108.662 173.636 108.395 173.812C108.131 173.985 107.927 174.213 107.782 174.494C107.64 174.772 107.569 175.075 107.569 175.402V176.147C107.569 176.585 107.645 176.957 107.799 177.264C107.955 177.571 108.172 177.805 108.451 177.967C108.729 178.126 109.054 178.206 109.427 178.206C109.668 178.206 109.888 178.171 110.087 178.103C110.286 178.032 110.458 177.927 110.603 177.788C110.748 177.649 110.858 177.477 110.935 177.272L112.141 177.49C112.044 177.845 111.871 178.156 111.621 178.423C111.374 178.687 111.063 178.893 110.688 179.041C110.316 179.186 109.891 179.258 109.414 179.258ZM118.541 174.179L117.386 174.383C117.337 174.235 117.261 174.095 117.156 173.961C117.053 173.828 116.914 173.718 116.738 173.633C116.562 173.548 116.342 173.505 116.077 173.505C115.717 173.505 115.416 173.586 115.174 173.748C114.933 173.907 114.812 174.113 114.812 174.366C114.812 174.585 114.893 174.761 115.055 174.894C115.217 175.028 115.478 175.137 115.839 175.223L116.879 175.461C117.481 175.6 117.93 175.815 118.225 176.105C118.521 176.394 118.668 176.771 118.668 177.234C118.668 177.626 118.555 177.975 118.327 178.282C118.103 178.586 117.789 178.825 117.386 178.998C116.985 179.171 116.521 179.258 115.992 179.258C115.259 179.258 114.661 179.102 114.198 178.789C113.735 178.474 113.451 178.027 113.346 177.447L114.577 177.259C114.654 177.581 114.812 177.823 115.05 177.988C115.289 178.15 115.6 178.231 115.984 178.231C116.401 178.231 116.735 178.144 116.985 177.971C117.235 177.795 117.36 177.581 117.36 177.328C117.36 177.123 117.283 176.951 117.13 176.812C116.979 176.673 116.748 176.568 116.435 176.497L115.327 176.254C114.717 176.115 114.265 175.893 113.972 175.589C113.683 175.285 113.538 174.9 113.538 174.434C113.538 174.048 113.646 173.71 113.862 173.42C114.077 173.13 114.376 172.904 114.756 172.742C115.137 172.578 115.573 172.495 116.065 172.495C116.772 172.495 117.329 172.649 117.735 172.956C118.141 173.259 118.41 173.667 118.541 174.179Z" fill="black"/>
<defs>
<linearGradient id="paint0_linear_141_104" x1="175" y1="0" x2="175" y2="221.13" gradientUnits="userSpaceOnUse">
<stop stop-color="#05073C" stop-opacity="0"/>
<stop offset="1" stop-color="#05073C"/>
</linearGradient>
</defs>
</svg>
