<svg width="13" height="14" viewBox="0 0 13 14" fill="none" xmlns="http://www.w3.org/2000/svg">
<path d="M10.4754 6.86718V3.98649C10.4754 3.5003 10.2823 3.03403 9.93848 2.69024C9.59469 2.34646 9.12842 2.15332 8.64223 2.15332C8.15605 2.15332 7.68978 2.34646 7.34599 2.69024C7.0022 3.03403 6.80907 3.5003 6.80907 3.98649V4.24837M10.4754 6.86718V8.43846C10.4754 8.9941 10.2547 9.52698 9.86177 9.91988C9.46888 10.3128 8.93599 10.5335 8.38035 10.5335H4.19026C3.63462 10.5335 3.10174 10.3128 2.70884 9.91988C2.31594 9.52698 2.09521 8.9941 2.09521 8.43846V6.86718H10.4754ZM11.261 6.86718H1.30957" stroke="#55B76B" stroke-width="1.25703" stroke-linecap="round"/>
<path d="M4.45231 10.5332L3.40479 12.1045M8.11864 10.5332L9.16616 12.1045" stroke="#55B76B" stroke-width="1.25703" stroke-linecap="round" stroke-linejoin="round"/>
</svg>
