<svg width="15" height="15" viewBox="0 0 15 15" fill="none" xmlns="http://www.w3.org/2000/svg">
<path d="M13.125 3.125V5.625" stroke="#003407" stroke-width="0.9375" stroke-linecap="round" stroke-linejoin="round"/>
<path d="M3.125 11.875V5.625C3.125 5.29348 3.2567 4.97554 3.49112 4.74112C3.72554 4.5067 4.04348 4.375 4.375 4.375H10C10.3315 4.375 10.6495 4.5067 10.8839 4.74112C11.1183 4.97554 11.25 5.29348 11.25 5.625V11.875C11.25 12.2065 11.1183 12.5245 10.8839 12.7589C10.6495 12.9933 10.3315 13.125 10 13.125H4.375C4.04348 13.125 3.72554 12.9933 3.49112 12.7589C3.2567 12.5245 3.125 12.2065 3.125 11.875Z" stroke="#003407" stroke-width="0.9375"/>
<path d="M3.125 6.25V3.125C3.125 2.79348 3.2567 2.47554 3.49112 2.24112C3.72554 2.0067 4.04348 1.875 4.375 1.875H10C10.3315 1.875 10.6495 2.0067 10.8839 2.24112C11.1183 2.47554 11.25 2.79348 11.25 3.125V6.25" stroke="#003407" stroke-width="0.9375"/>
<path d="M6.97937 6.875L5.9375 8.75H8.4375L7.39563 10.625" stroke="#003407" stroke-width="0.9375" stroke-linecap="round" stroke-linejoin="round"/>
</svg>
