<svg width="13" height="13" viewBox="0 0 13 13" fill="none" xmlns="http://www.w3.org/2000/svg">
<g clip-path="url(#clip0_273_5268)">
<path d="M3.32589 8.45349L2.22599 7.3274C2.74102 6.81236 3.34561 6.40435 4.03977 6.10337C4.73358 5.80203 5.48204 5.65136 6.28514 5.65136C7.08824 5.65136 7.83687 5.80412 8.53103 6.10965C9.22484 6.41518 9.82926 6.82982 10.3443 7.35359L9.24439 8.45349C8.8603 8.06939 8.4151 7.76823 7.9088 7.55C7.4025 7.33176 6.86128 7.22264 6.28514 7.22264C5.709 7.22264 5.16778 7.33176 4.66148 7.55C4.15518 7.76823 3.70998 8.06939 3.32589 8.45349ZM1.0999 6.2275L0 5.1276C0.803101 4.30704 1.74151 3.66543 2.81522 3.20277C3.88893 2.74012 5.04557 2.50879 6.28514 2.50879C7.52471 2.50879 8.68135 2.74012 9.75506 3.20277C10.8288 3.66543 11.7672 4.30704 12.5703 5.1276L11.4704 6.2275C10.7982 5.55534 10.0192 5.02931 9.13336 4.6494C8.24715 4.26985 7.29775 4.08007 6.28514 4.08007C5.27253 4.08007 4.32313 4.26985 3.43692 4.6494C2.55107 5.02931 1.77206 5.55534 1.0999 6.2275ZM6.28514 11.4127L8.1314 9.55338C7.89571 9.31769 7.62073 9.1321 7.30648 8.99663C6.99222 8.8615 6.65177 8.79393 6.28514 8.79393C5.91851 8.79393 5.57806 8.8615 5.2638 8.99663C4.94955 9.1321 4.67457 9.31769 4.43888 9.55338L6.28514 11.4127Z" fill="#55B76B"/>
</g>
<defs>
<clipPath id="clip0_273_5268">
<rect width="12.5703" height="12.5703" fill="white" transform="translate(0 0.414062)"/>
</clipPath>
</defs>
</svg>
