<svg width="13" height="14" viewBox="0 0 13 14" fill="none" xmlns="http://www.w3.org/2000/svg">
<g clip-path="url(#clip0_273_5272)">
<path d="M6.28556 1.3457L4.55191 3.07935H2.09547V5.5358L0.361816 7.26945L2.09547 9.0031V11.4595H4.55191L6.28556 13.1932L6.80932 12.6694V10.323L8.50631 12.02L9.25005 11.2815L6.80932 8.84073V7.79321H7.85685L10.2976 10.2339L11.0361 9.4902L9.33909 7.79321H11.5232V6.74569H9.33909L11.0361 5.0487L10.2976 4.30496L7.85685 6.74569H6.80932V5.69816L9.25005 3.25743L8.50631 2.51893L6.80932 4.21592V1.86946M5.7618 4.17402V5.24249C4.83998 5.48342 4.19051 6.3162 4.19051 7.26945C4.19176 7.73342 4.34659 8.18391 4.63085 8.55061C4.91511 8.9173 5.31279 9.17955 5.7618 9.29641V10.3649C5.03007 10.2412 4.36573 9.86255 3.88641 9.296C3.4071 8.72945 3.14374 8.01155 3.14299 7.26945C3.14299 5.73483 4.24813 4.42542 5.7618 4.17402Z" fill="#55B76B"/>
</g>
<defs>
<clipPath id="clip0_273_5272">
<rect width="12.5703" height="12.5703" fill="white" transform="translate(0 0.984375)"/>
</clipPath>
</defs>
</svg>
