<svg width="13" height="13" viewBox="0 0 13 13" fill="none" xmlns="http://www.w3.org/2000/svg">
<path d="M2.61865 1.84473H10.4751C10.7529 1.84473 11.0193 1.95509 11.2158 2.15154C11.4122 2.34799 11.5226 2.61443 11.5226 2.89225V4.46354C11.5226 4.74136 11.4122 5.0078 11.2158 5.20425C11.0193 5.40069 10.7529 5.51106 10.4751 5.51106H9.42755V7.08234C9.42755 7.63798 9.20682 8.17087 8.81392 8.56377C8.42103 8.95666 7.88814 9.17739 7.3325 9.17739H4.18993C3.63429 9.17739 3.10141 8.95666 2.70851 8.56377C2.31561 8.17087 2.09489 7.63798 2.09489 7.08234V2.36849C2.09489 2.22958 2.15007 2.09636 2.24829 1.99813C2.34652 1.89991 2.47974 1.84473 2.61865 1.84473ZM9.42755 2.89225V4.46354H10.4751V2.89225H9.42755ZM1.04736 10.2249H10.4751V11.2724H1.04736V10.2249Z" fill="#55B76B"/>
</svg>
