<svg width="18" height="18" viewBox="0 0 18 18" fill="none" xmlns="http://www.w3.org/2000/svg">
<path d="M17.1633 15.8369L13.4531 12.1251C14.5655 10.6755 15.0849 8.85701 14.9059 7.03853C14.7268 5.22005 13.8627 3.53777 12.4889 2.33294C11.1151 1.12811 9.3345 0.490959 7.50821 0.55073C5.68191 0.6105 3.94673 1.36272 2.65466 2.65479C1.36258 3.94687 0.610363 5.68205 0.550592 7.50834C0.490822 9.33464 1.12798 11.1153 2.3328 12.4891C3.53763 13.8629 5.21991 14.7269 7.03839 14.906C8.85687 15.085 10.6754 14.5657 12.125 13.4533L15.8383 17.1673C15.9255 17.2545 16.029 17.3237 16.143 17.3709C16.2569 17.4181 16.379 17.4424 16.5023 17.4424C16.6257 17.4424 16.7478 17.4181 16.8617 17.3709C16.9757 17.3237 17.0792 17.2545 17.1664 17.1673C17.2536 17.0801 17.3228 16.9766 17.37 16.8626C17.4172 16.7487 17.4415 16.6266 17.4415 16.5033C17.4415 16.3799 17.4172 16.2578 17.37 16.1439C17.3228 16.0299 17.2536 15.9264 17.1664 15.8392L17.1633 15.8369ZM2.4375 7.75014C2.4375 6.69942 2.74907 5.67231 3.33282 4.79867C3.91656 3.92503 4.74626 3.24412 5.71699 2.84203C6.68773 2.43994 7.75589 2.33473 8.78642 2.53972C9.81694 2.7447 10.7635 3.25067 11.5065 3.99363C12.2495 4.7366 12.7554 5.6832 12.9604 6.71372C13.1654 7.74424 13.0602 8.81241 12.6581 9.78314C12.256 10.7539 11.5751 11.5836 10.7015 12.1673C9.82783 12.7511 8.80071 13.0626 7.75 13.0626C6.34148 13.0612 4.99107 12.501 3.99509 11.505C2.99912 10.5091 2.43895 9.15866 2.4375 7.75014Z" fill="#FFFDFD"/>
</svg>
